<?xml version="1.0" encoding="UTF-8"?>
<svg xmlns="http://www.w3.org/2000/svg" viewBox="-214.5 -68 720 720">
  <g transform="matrix(1,0,0,1,-111.502753,-1298.572266)">
    <g transform="matrix(4.166667,0,0,4.166667,111.503838,1295.205541)">
            <path d="M3.215,61.958C2.909,61.498 2.372,59.952 3.374,59.571C3.593,59.547 2.129,59.987 1.151,60.876C0.174,61.764 0.292,62.831 0.648,63.452C0.96,63.997 1.254,64.283 2.07,64.786C3.081,65.407 5.386,66.915 7.972,68.771L7.972,135.761L41.471,135.761C41.787,137.19 42.347,139.845 42.411,140.963L44.359,140.963C40.115,110.412 31.74,78.814 3.215,61.958Z" style="fill:rgb(35,31,32);"/>
        </g>
    <g transform="matrix(4.166667,0,0,4.166667,111.503838,1295.205541)">
            <path d="M35.612,31.24C32.851,26.692 29.241,22.911 25.478,18.978C19.18,12.575 11.031,7.784 2.957,3.765C2.405,3.141 2.968,1.267 3.794,0.889L3.58,0.808C3.58,0.808 1.98,1.076 1.003,1.964C0.026,2.852 -0.062,4.363 0.026,4.985C0.115,5.606 0.559,5.962 1.448,6.318C2.253,6.64 5.179,7.917 7.972,9.477L7.972,31.147C17.964,31.274 26.491,31.288 35.612,31.24Z" style="fill:rgb(35,31,32);"/>
        </g>
    <g transform="matrix(4.166667,0,0,4.166667,111.503838,1295.205541)">
            <path d="M18.529,64.071C18.221,64.225 16.682,63.837 17.064,64.992C35.28,84.829 41.397,110.045 44.968,135.761L50.711,135.761C51.027,137.19 51.588,139.845 51.651,140.963L53.495,140.963C50.228,113.867 45.873,87.324 32.769,64.256L18.529,64.071Z" style="fill:rgb(35,31,32);"/>
        </g>
    <g transform="matrix(4.166667,0,0,4.166667,111.503838,1295.205541)">
            <path d="M29.625,59.246C28.782,56.857 26.786,54.929 25.405,52.769C19.186,44.982 11.195,38.576 2.891,33.937C2.355,32.782 2.896,31.473 3.974,31.09L4.039,31.09L3.847,31.019C3.847,31.019 2.247,31.285 1.27,32.175C0.292,33.065 0.262,34.307 0.351,34.929C0.441,35.552 1.417,36.084 2.129,36.528C2.849,36.98 5.251,38.49 7.972,40.098L7.972,59.297C14.871,59.119 21.679,59.922 29.625,59.246Z" style="fill:rgb(35,31,32);fill-rule:nonzero;"/>
        </g>
    <g transform="matrix(4.166667,0,0,4.166667,111.503838,1295.205541)">
            <path d="M39.604,36.79L38.526,36.172L16.741,36.355L16.741,36.895C26.422,44.844 33.404,55.867 38.46,66.656C47.738,88.036 51.953,111.621 54.285,135.761L60.44,135.761C60.644,136.944 60.98,139.037 61.159,140.963L62.285,140.963C62.285,140.963 63.01,140.955 63.01,140.952L63.01,140.904C60.574,104.079 57.337,67.561 39.604,36.79Z" style="fill:rgb(35,31,32);"/>
        </g>
    <g transform="matrix(4.166667,0,0,4.166667,111.503838,1295.205541)">
            <path d="M69.811,6.524L42.286,6.468L22.118,6.42L21.041,6.42C20.656,6.572 19.963,6.338 20.115,6.955C30.183,14.289 39.09,24.78 44.455,35.646C58.96,65.928 62.693,100.628 64.128,135.761L69.811,135.761L69.811,6.524Z" style="fill:rgb(35,31,32);fill-rule:nonzero;"/>
        </g>
  </g>
</svg>
