<?xml version="1.0" encoding="UTF-8" standalone="no"?>
<!DOCTYPE svg PUBLIC "-//W3C//DTD SVG 1.1//EN" "http://www.w3.org/Graphics/SVG/1.1/DTD/svg11.dtd">
<svg width="100%" height="100%" viewBox="0 0 2028 584" version="1.1" xmlns="http://www.w3.org/2000/svg" xmlns:xlink="http://www.w3.org/1999/xlink" xml:space="preserve" xmlns:serif="http://www.serif.com/" style="fill-rule:evenodd;clip-rule:evenodd;stroke-miterlimit:2;">
    <g transform="matrix(1,0,0,1,-111.502753,-1298.572266)">
        <g transform="matrix(4.166667,0,0,4.166667,111.503838,1295.205541)">
            <path d="M112.081,50.498C112.081,50.736 112.014,50.854 111.877,50.854C111.307,50.854 110.626,50.827 109.835,50.775C109.079,50.722 108.442,50.696 107.923,50.696C107.42,50.696 106.728,50.722 105.843,50.775C104.917,50.827 104.168,50.854 103.598,50.854C103.462,50.854 103.394,50.736 103.394,50.498C103.394,50.285 103.453,50.171 103.573,50.154C104.721,50.018 105.295,49.74 105.295,49.322C105.295,49.083 105.108,48.775 104.733,48.4L99.669,43.247C99.397,42.975 99.161,42.797 98.961,42.711C98.761,42.626 98.487,42.584 98.138,42.584L98.138,47.996C98.138,48.583 98.212,48.999 98.361,49.242C98.51,49.484 98.774,49.675 99.152,49.815C99.531,49.956 100.074,50.069 100.779,50.154C100.924,50.171 100.996,50.285 100.996,50.498C100.996,50.736 100.928,50.854 100.792,50.854C100.222,50.854 99.542,50.827 98.751,50.775C97.991,50.722 97.349,50.696 96.826,50.696C96.312,50.696 95.678,50.722 94.927,50.775C94.136,50.827 93.457,50.854 92.886,50.854C92.75,50.854 92.683,50.736 92.683,50.498C92.683,50.285 92.75,50.171 92.886,50.154C93.916,50.035 94.614,49.843 94.984,49.579C95.355,49.315 95.54,48.787 95.54,47.993L95.54,35.966C95.54,35.369 95.465,34.95 95.316,34.707C95.167,34.464 94.905,34.274 94.531,34.133C94.157,33.991 93.609,33.878 92.886,33.793C92.75,33.793 92.683,33.678 92.683,33.443C92.683,33.21 92.75,33.093 92.886,33.093C93.457,33.093 94.136,33.12 94.927,33.172C95.678,33.225 96.312,33.251 96.826,33.251C97.349,33.251 97.991,33.225 98.751,33.172C99.542,33.12 100.222,33.093 100.792,33.093C100.928,33.093 100.996,33.21 100.996,33.443C100.996,33.678 100.928,33.793 100.792,33.793C100.069,33.878 99.52,33.993 99.145,34.133C98.771,34.274 98.51,34.466 98.361,34.709C98.212,34.952 98.138,35.372 98.138,35.97L98.138,41.77C98.47,41.77 98.738,41.728 98.942,41.643C99.146,41.558 99.388,41.379 99.669,41.106L105.27,35.576C105.728,35.137 105.958,34.819 105.958,34.619C105.958,34.388 105.849,34.213 105.633,34.097C105.416,33.981 104.98,33.88 104.326,33.793C104.189,33.793 104.122,33.678 104.122,33.443C104.122,33.21 104.198,33.093 104.352,33.093C104.751,33.093 105.278,33.12 105.932,33.172C106.628,33.225 107.205,33.251 107.664,33.251C108.123,33.251 108.631,33.22 109.191,33.16C109.659,33.116 110.058,33.093 110.389,33.093C110.508,33.093 110.567,33.21 110.567,33.443C110.567,33.678 110.5,33.793 110.364,33.793C109.55,33.896 108.909,34.065 108.443,34.298C107.976,34.529 107.417,34.96 106.764,35.589L100.934,41.131L108.166,48.489C108.669,49.014 109.166,49.394 109.656,49.626C110.146,49.86 110.878,50.035 111.851,50.154C112.004,50.171 112.081,50.285 112.081,50.498Z" style="fill:rgb(35,31,32);fill-rule:nonzero;"/>
        </g>
        <g transform="matrix(4.166667,0,0,4.166667,111.503838,1295.205541)">
            <path d="M112.081,50.498C112.081,50.736 112.014,50.854 111.877,50.854C111.307,50.854 110.626,50.827 109.835,50.775C109.079,50.722 108.442,50.696 107.923,50.696C107.42,50.696 106.728,50.722 105.843,50.775C104.917,50.827 104.168,50.854 103.598,50.854C103.462,50.854 103.394,50.736 103.394,50.498C103.394,50.285 103.453,50.171 103.573,50.154C104.721,50.018 105.295,49.74 105.295,49.322C105.295,49.083 105.108,48.775 104.733,48.4L99.669,43.247C99.397,42.975 99.161,42.797 98.961,42.711C98.761,42.626 98.487,42.584 98.138,42.584L98.138,47.996C98.138,48.583 98.212,48.999 98.361,49.242C98.51,49.484 98.774,49.675 99.152,49.815C99.531,49.956 100.074,50.069 100.779,50.154C100.924,50.171 100.996,50.285 100.996,50.498C100.996,50.736 100.928,50.854 100.792,50.854C100.222,50.854 99.542,50.827 98.751,50.775C97.991,50.722 97.349,50.696 96.826,50.696C96.312,50.696 95.678,50.722 94.927,50.775C94.136,50.827 93.457,50.854 92.886,50.854C92.75,50.854 92.683,50.736 92.683,50.498C92.683,50.285 92.75,50.171 92.886,50.154C93.916,50.035 94.614,49.843 94.984,49.579C95.355,49.315 95.54,48.787 95.54,47.993L95.54,35.966C95.54,35.369 95.465,34.95 95.316,34.707C95.167,34.464 94.905,34.274 94.531,34.133C94.157,33.991 93.609,33.878 92.886,33.793C92.75,33.793 92.683,33.678 92.683,33.443C92.683,33.21 92.75,33.093 92.886,33.093C93.457,33.093 94.136,33.12 94.927,33.172C95.678,33.225 96.312,33.251 96.826,33.251C97.349,33.251 97.991,33.225 98.751,33.172C99.542,33.12 100.222,33.093 100.792,33.093C100.928,33.093 100.996,33.21 100.996,33.443C100.996,33.678 100.928,33.793 100.792,33.793C100.069,33.878 99.52,33.993 99.145,34.133C98.771,34.274 98.51,34.466 98.361,34.709C98.212,34.952 98.138,35.372 98.138,35.97L98.138,41.77C98.47,41.77 98.738,41.728 98.942,41.643C99.146,41.558 99.388,41.379 99.669,41.106L105.27,35.576C105.728,35.137 105.958,34.819 105.958,34.619C105.958,34.388 105.849,34.213 105.633,34.097C105.416,33.981 104.98,33.88 104.326,33.793C104.189,33.793 104.122,33.678 104.122,33.443C104.122,33.21 104.198,33.093 104.352,33.093C104.751,33.093 105.278,33.12 105.932,33.172C106.628,33.225 107.205,33.251 107.664,33.251C108.123,33.251 108.631,33.22 109.191,33.16C109.659,33.116 110.058,33.093 110.389,33.093C110.508,33.093 110.567,33.21 110.567,33.443C110.567,33.678 110.5,33.793 110.364,33.793C109.55,33.896 108.909,34.065 108.443,34.298C107.976,34.529 107.417,34.96 106.764,35.589L100.934,41.131L108.166,48.489C108.669,49.014 109.166,49.394 109.656,49.626C110.146,49.86 110.878,50.035 111.851,50.154C112.004,50.171 112.081,50.285 112.081,50.498Z" style="fill:none;stroke:rgb(35,31,32);stroke-width:0.5px;"/>
        </g>
        <g transform="matrix(4.166667,0,0,4.166667,111.503838,1295.205541)">
            <path d="M125.949,50.498C125.949,50.736 125.881,50.854 125.745,50.854C125.175,50.854 124.499,50.827 123.717,50.775C122.969,50.722 122.336,50.696 121.818,50.696C121.3,50.696 120.667,50.722 119.919,50.775C119.128,50.827 118.444,50.854 117.865,50.854C117.729,50.854 117.661,50.736 117.661,50.498C117.661,50.285 117.729,50.171 117.865,50.154C118.895,50.035 119.593,49.843 119.963,49.579C120.333,49.315 120.519,48.787 120.519,47.993L120.519,35.966C120.519,35.369 120.444,34.95 120.295,34.707C120.146,34.464 119.884,34.274 119.51,34.133C119.136,33.991 118.588,33.878 117.865,33.793C117.729,33.793 117.661,33.678 117.661,33.443C117.661,33.21 117.729,33.093 117.865,33.093C118.444,33.093 119.128,33.12 119.919,33.172C120.667,33.225 121.3,33.251 121.818,33.251C122.336,33.251 122.969,33.225 123.717,33.172C124.499,33.12 125.175,33.093 125.745,33.093C125.881,33.093 125.949,33.21 125.949,33.443C125.949,33.678 125.881,33.793 125.745,33.793C125.03,33.878 124.486,33.991 124.111,34.133C123.737,34.274 123.479,34.463 123.334,34.702C123.189,34.94 123.117,35.361 123.117,35.966L123.117,47.993C123.117,48.582 123.189,48.997 123.334,49.24C123.479,49.483 123.736,49.675 124.106,49.815C124.476,49.956 125.018,50.069 125.732,50.154C125.877,50.171 125.949,50.285 125.949,50.498Z" style="fill:rgb(35,31,32);fill-rule:nonzero;"/>
        </g>
        <g transform="matrix(4.166667,0,0,4.166667,111.503838,1295.205541)">
            <path d="M125.949,50.498C125.949,50.736 125.881,50.854 125.745,50.854C125.175,50.854 124.499,50.827 123.717,50.775C122.969,50.722 122.336,50.696 121.818,50.696C121.3,50.696 120.667,50.722 119.919,50.775C119.128,50.827 118.444,50.854 117.865,50.854C117.729,50.854 117.661,50.736 117.661,50.498C117.661,50.285 117.729,50.171 117.865,50.154C118.895,50.035 119.593,49.843 119.963,49.579C120.333,49.315 120.519,48.787 120.519,47.993L120.519,35.966C120.519,35.369 120.444,34.95 120.295,34.707C120.146,34.464 119.884,34.274 119.51,34.133C119.136,33.991 118.588,33.878 117.865,33.793C117.729,33.793 117.661,33.678 117.661,33.443C117.661,33.21 117.729,33.093 117.865,33.093C118.444,33.093 119.128,33.12 119.919,33.172C120.667,33.225 121.3,33.251 121.818,33.251C122.336,33.251 122.969,33.225 123.717,33.172C124.499,33.12 125.175,33.093 125.745,33.093C125.881,33.093 125.949,33.21 125.949,33.443C125.949,33.678 125.881,33.793 125.745,33.793C125.03,33.878 124.486,33.991 124.111,34.133C123.737,34.274 123.479,34.463 123.334,34.702C123.189,34.94 123.117,35.361 123.117,35.966L123.117,47.993C123.117,48.582 123.189,48.997 123.334,49.24C123.479,49.483 123.736,49.675 124.106,49.815C124.476,49.956 125.018,50.069 125.732,50.154C125.877,50.171 125.949,50.285 125.949,50.498Z" style="fill:none;stroke:rgb(35,31,32);stroke-width:0.5px;"/>
        </g>
        <g transform="matrix(4.166667,0,0,4.166667,111.503838,1295.205541)">
            <path d="M149.683,37.302C149.683,37.464 149.53,37.545 149.224,37.545C149.088,37.545 149.002,37.485 148.969,37.365C148.603,36.163 148.08,35.313 147.399,34.813C146.719,34.315 145.71,34.065 144.375,34.065L143.175,34.065C142.758,34.065 142.473,34.133 142.32,34.269C142.167,34.405 142.09,34.661 142.09,35.035L142.09,47.996C142.09,48.583 142.165,48.999 142.313,49.242C142.462,49.484 142.726,49.675 143.104,49.815C143.483,49.956 144.025,50.069 144.731,50.154C144.867,50.171 144.935,50.285 144.935,50.498C144.935,50.736 144.867,50.854 144.731,50.854C144.161,50.854 143.481,50.827 142.69,50.775C141.938,50.722 141.31,50.696 140.804,50.696C140.281,50.696 139.639,50.722 138.879,50.775C138.089,50.827 137.409,50.854 136.838,50.854C136.703,50.854 136.635,50.736 136.635,50.498C136.635,50.285 136.703,50.171 136.838,50.154C137.868,50.035 138.567,49.843 138.937,49.579C139.307,49.315 139.492,48.787 139.492,47.996L139.492,35.035C139.492,34.661 139.416,34.405 139.262,34.269C139.109,34.133 138.821,34.065 138.396,34.065L137.402,34.065C136.205,34.065 135.117,34.37 134.141,34.98C133.163,35.59 132.526,36.381 132.229,37.352C132.187,37.481 132.093,37.545 131.949,37.545C131.659,37.545 131.515,37.452 131.515,37.264C131.992,35.975 132.444,34.518 132.871,32.89C134.027,33.131 136.674,33.251 140.81,33.251C145.056,33.251 147.757,33.131 148.915,32.89C149.034,33.998 149.291,35.469 149.683,37.302Z" style="fill:rgb(35,31,32);fill-rule:nonzero;"/>
        </g>
        <g transform="matrix(4.166667,0,0,4.166667,111.503838,1295.205541)">
            <path d="M149.683,37.302C149.683,37.464 149.53,37.545 149.224,37.545C149.088,37.545 149.002,37.485 148.969,37.365C148.603,36.163 148.08,35.313 147.399,34.813C146.719,34.315 145.71,34.065 144.375,34.065L143.175,34.065C142.758,34.065 142.473,34.133 142.32,34.269C142.167,34.405 142.09,34.661 142.09,35.035L142.09,47.996C142.09,48.583 142.165,48.999 142.313,49.242C142.462,49.484 142.726,49.675 143.104,49.815C143.483,49.956 144.025,50.069 144.731,50.154C144.867,50.171 144.935,50.285 144.935,50.498C144.935,50.736 144.867,50.854 144.731,50.854C144.161,50.854 143.481,50.827 142.69,50.775C141.938,50.722 141.31,50.696 140.804,50.696C140.281,50.696 139.639,50.722 138.879,50.775C138.089,50.827 137.409,50.854 136.838,50.854C136.703,50.854 136.635,50.736 136.635,50.498C136.635,50.285 136.703,50.171 136.838,50.154C137.868,50.035 138.567,49.843 138.937,49.579C139.307,49.315 139.492,48.787 139.492,47.996L139.492,35.035C139.492,34.661 139.416,34.405 139.262,34.269C139.109,34.133 138.821,34.065 138.396,34.065L137.402,34.065C136.205,34.065 135.117,34.37 134.141,34.98C133.163,35.59 132.526,36.381 132.229,37.352C132.187,37.481 132.093,37.545 131.949,37.545C131.659,37.545 131.515,37.452 131.515,37.264C131.992,35.975 132.444,34.518 132.871,32.89C134.027,33.131 136.674,33.251 140.81,33.251C145.056,33.251 147.757,33.131 148.915,32.89C149.034,33.998 149.291,35.469 149.683,37.302Z" style="fill:none;stroke:rgb(35,31,32);stroke-width:0.5px;"/>
        </g>
        <g transform="matrix(4.166667,0,0,4.166667,111.503838,1295.205541)">
            <path d="M171.813,46.132C171.506,47.493 171.208,48.939 170.92,50.47C170.435,50.47 169.555,50.585 168.279,50.815C166.646,51.112 165.439,51.261 164.657,51.261C162.718,51.261 161.017,50.878 159.554,50.114C158.091,49.349 156.951,48.254 156.135,46.829C155.318,45.406 154.91,43.823 154.91,42.079C154.91,40.362 155.342,38.779 156.205,37.328C157.069,35.88 158.257,34.751 159.772,33.943C161.287,33.135 162.992,32.731 164.89,32.731C165.689,32.731 166.761,32.815 168.105,32.983C169.152,33.117 169.914,33.183 170.389,33.183C170.5,34.374 170.696,35.82 170.977,37.522C170.977,37.658 170.839,37.725 170.564,37.725C170.392,37.725 170.288,37.658 170.254,37.522C169.947,36.367 169.288,35.415 168.276,34.666C167.264,33.919 166.099,33.545 164.78,33.545C162.781,33.545 161.104,34.37 159.748,36.019C158.39,37.669 157.712,39.69 157.712,42.079C157.712,44.401 158.385,46.376 159.729,48.004C161.072,49.634 162.715,50.448 164.654,50.448C167.692,50.448 169.844,49.01 171.111,46.133C171.17,45.996 171.286,45.928 171.456,45.928C171.694,45.928 171.813,45.996 171.813,46.132Z" style="fill:rgb(35,31,32);fill-rule:nonzero;"/>
        </g>
        <g transform="matrix(4.166667,0,0,4.166667,111.503838,1295.205541)">
            <path d="M171.813,46.132C171.506,47.493 171.208,48.939 170.92,50.47C170.435,50.47 169.555,50.585 168.279,50.815C166.646,51.112 165.439,51.261 164.657,51.261C162.718,51.261 161.017,50.878 159.554,50.114C158.091,49.349 156.951,48.254 156.135,46.829C155.318,45.406 154.91,43.823 154.91,42.079C154.91,40.362 155.342,38.779 156.205,37.328C157.069,35.88 158.257,34.751 159.772,33.943C161.287,33.135 162.992,32.731 164.89,32.731C165.689,32.731 166.761,32.815 168.105,32.983C169.152,33.117 169.914,33.183 170.389,33.183C170.5,34.374 170.696,35.82 170.977,37.522C170.977,37.658 170.839,37.725 170.564,37.725C170.392,37.725 170.288,37.658 170.254,37.522C169.947,36.367 169.288,35.415 168.276,34.666C167.264,33.919 166.099,33.545 164.78,33.545C162.781,33.545 161.104,34.37 159.748,36.019C158.39,37.669 157.712,39.69 157.712,42.079C157.712,44.401 158.385,46.376 159.729,48.004C161.072,49.634 162.715,50.448 164.654,50.448C167.692,50.448 169.844,49.01 171.111,46.133C171.17,45.996 171.286,45.928 171.456,45.928C171.694,45.928 171.813,45.996 171.813,46.132Z" style="fill:none;stroke:rgb(35,31,32);stroke-width:0.5px;"/>
        </g>
        <g transform="matrix(4.166667,0,0,4.166667,111.503838,1295.205541)">
            <path d="M197.929,50.498C197.929,50.736 197.861,50.854 197.725,50.854C197.146,50.854 196.462,50.827 195.671,50.775C194.923,50.722 194.29,50.696 193.771,50.696C193.252,50.696 192.653,50.722 191.973,50.775C191.259,50.827 190.618,50.854 190.048,50.854C189.912,50.854 189.844,50.736 189.844,50.498C189.844,50.285 189.916,50.171 190.061,50.154C190.776,50.069 191.308,49.952 191.656,49.802C192.005,49.654 192.228,49.458 192.326,49.215C192.425,48.972 192.473,48.565 192.473,47.993L192.473,42.313L182.734,42.313L182.734,47.993C182.734,48.565 182.783,48.972 182.88,49.215C182.978,49.458 183.202,49.654 183.551,49.802C183.9,49.952 184.436,50.069 185.16,50.154C185.295,50.171 185.363,50.285 185.363,50.498C185.363,50.736 185.295,50.854 185.16,50.854C184.589,50.854 183.948,50.827 183.234,50.775C182.554,50.722 181.954,50.696 181.436,50.696C180.917,50.696 180.28,50.722 179.523,50.775C178.732,50.827 178.051,50.854 177.482,50.854C177.345,50.854 177.277,50.736 177.277,50.498C177.277,50.285 177.345,50.171 177.482,50.154C178.51,50.035 179.21,49.843 179.58,49.579C179.95,49.315 180.135,48.787 180.135,47.993L180.135,35.966C180.135,35.369 180.061,34.95 179.911,34.707C179.763,34.464 179.502,34.274 179.127,34.133C178.753,33.991 178.205,33.878 177.482,33.793C177.345,33.793 177.277,33.678 177.277,33.443C177.277,33.21 177.345,33.093 177.482,33.093C178.051,33.093 178.732,33.12 179.523,33.172C180.28,33.225 180.917,33.251 181.436,33.251C181.954,33.251 182.554,33.225 183.234,33.172C183.948,33.12 184.589,33.093 185.16,33.093C185.295,33.093 185.363,33.21 185.363,33.443C185.363,33.678 185.295,33.793 185.16,33.793C184.496,33.87 183.993,33.973 183.652,34.1C183.312,34.228 183.074,34.401 182.938,34.618C182.802,34.836 182.734,35.285 182.734,35.966L182.734,41.499L192.473,41.499L192.473,35.966C192.473,35.395 192.425,34.987 192.326,34.74C192.228,34.493 192.007,34.293 191.663,34.145C191.318,33.997 190.779,33.878 190.048,33.793C189.912,33.793 189.844,33.678 189.844,33.443C189.844,33.21 189.912,33.093 190.048,33.093C190.618,33.093 191.259,33.12 191.973,33.172C192.653,33.225 193.252,33.251 193.771,33.251C194.29,33.251 194.923,33.225 195.671,33.172C196.462,33.12 197.146,33.093 197.725,33.093C197.861,33.093 197.929,33.21 197.929,33.443C197.929,33.678 197.861,33.793 197.725,33.793C197.002,33.878 196.454,33.991 196.08,34.133C195.706,34.274 195.444,34.464 195.295,34.707C195.146,34.95 195.072,35.369 195.072,35.966L195.072,47.993C195.072,48.787 195.256,49.315 195.626,49.579C195.996,49.843 196.696,50.035 197.725,50.154C197.861,50.171 197.929,50.285 197.929,50.498Z" style="fill:rgb(35,31,32);fill-rule:nonzero;"/>
        </g>
        <g transform="matrix(4.166667,0,0,4.166667,111.503838,1295.205541)">
            <path d="M197.929,50.498C197.929,50.736 197.861,50.854 197.725,50.854C197.146,50.854 196.462,50.827 195.671,50.775C194.923,50.722 194.29,50.696 193.771,50.696C193.252,50.696 192.653,50.722 191.973,50.775C191.259,50.827 190.618,50.854 190.048,50.854C189.912,50.854 189.844,50.736 189.844,50.498C189.844,50.285 189.916,50.171 190.061,50.154C190.776,50.069 191.308,49.952 191.656,49.802C192.005,49.654 192.228,49.458 192.326,49.215C192.425,48.972 192.473,48.565 192.473,47.993L192.473,42.313L182.734,42.313L182.734,47.993C182.734,48.565 182.783,48.972 182.88,49.215C182.978,49.458 183.202,49.654 183.551,49.802C183.9,49.952 184.436,50.069 185.16,50.154C185.295,50.171 185.363,50.285 185.363,50.498C185.363,50.736 185.295,50.854 185.16,50.854C184.589,50.854 183.948,50.827 183.234,50.775C182.554,50.722 181.954,50.696 181.436,50.696C180.917,50.696 180.28,50.722 179.523,50.775C178.732,50.827 178.051,50.854 177.482,50.854C177.345,50.854 177.277,50.736 177.277,50.498C177.277,50.285 177.345,50.171 177.482,50.154C178.51,50.035 179.21,49.843 179.58,49.579C179.95,49.315 180.135,48.787 180.135,47.993L180.135,35.966C180.135,35.369 180.061,34.95 179.911,34.707C179.763,34.464 179.502,34.274 179.127,34.133C178.753,33.991 178.205,33.878 177.482,33.793C177.345,33.793 177.277,33.678 177.277,33.443C177.277,33.21 177.345,33.093 177.482,33.093C178.051,33.093 178.732,33.12 179.523,33.172C180.28,33.225 180.917,33.251 181.436,33.251C181.954,33.251 182.554,33.225 183.234,33.172C183.948,33.12 184.589,33.093 185.16,33.093C185.295,33.093 185.363,33.21 185.363,33.443C185.363,33.678 185.295,33.793 185.16,33.793C184.496,33.87 183.993,33.973 183.652,34.1C183.312,34.228 183.074,34.401 182.938,34.618C182.802,34.836 182.734,35.285 182.734,35.966L182.734,41.499L192.473,41.499L192.473,35.966C192.473,35.395 192.425,34.987 192.326,34.74C192.228,34.493 192.007,34.293 191.663,34.145C191.318,33.997 190.779,33.878 190.048,33.793C189.912,33.793 189.844,33.678 189.844,33.443C189.844,33.21 189.912,33.093 190.048,33.093C190.618,33.093 191.259,33.12 191.973,33.172C192.653,33.225 193.252,33.251 193.771,33.251C194.29,33.251 194.923,33.225 195.671,33.172C196.462,33.12 197.146,33.093 197.725,33.093C197.861,33.093 197.929,33.21 197.929,33.443C197.929,33.678 197.861,33.793 197.725,33.793C197.002,33.878 196.454,33.991 196.08,34.133C195.706,34.274 195.444,34.464 195.295,34.707C195.146,34.95 195.072,35.369 195.072,35.966L195.072,47.993C195.072,48.787 195.256,49.315 195.626,49.579C195.996,49.843 196.696,50.035 197.725,50.154C197.861,50.171 197.929,50.285 197.929,50.498Z" style="fill:none;stroke:rgb(35,31,32);stroke-width:0.5px;"/>
        </g>
        <g transform="matrix(4.166667,0,0,4.166667,111.503838,1295.205541)">
            <path d="M219.055,46.644C218.365,48.116 217.804,49.518 217.37,50.854C214.165,50.748 211.881,50.696 210.52,50.696C209.176,50.696 206.896,50.748 203.682,50.854C203.545,50.854 203.478,50.736 203.478,50.498C203.478,50.285 203.545,50.171 203.682,50.154C204.388,50.069 204.928,49.956 205.302,49.815C205.676,49.675 205.938,49.484 206.086,49.247C206.236,49.007 206.31,48.591 206.31,47.993L206.31,35.966C206.31,35.378 206.24,34.963 206.1,34.72C205.959,34.477 205.702,34.284 205.328,34.138C204.953,33.994 204.405,33.878 203.682,33.793C203.545,33.793 203.478,33.678 203.478,33.443C203.478,33.21 203.545,33.093 203.682,33.093C205.825,33.199 208.02,33.251 210.267,33.251C212.53,33.251 214.73,33.199 216.866,33.093C217.062,34.411 217.347,35.711 217.722,36.996C217.722,37.166 217.571,37.251 217.27,37.251C217.124,37.251 217.033,37.192 216.999,37.073C216.369,35.067 215.025,34.065 212.966,34.065L210.389,34.065C209.402,34.065 208.909,34.576 208.909,35.596L208.909,41.273L212.129,41.273C212.988,41.273 213.57,41.078 213.875,40.687C214.18,40.296 214.392,39.602 214.513,38.607C214.513,38.471 214.629,38.403 214.863,38.403C215.097,38.403 215.213,38.471 215.213,38.607C215.213,39.032 215.187,39.567 215.134,40.213C215.081,40.832 215.055,41.338 215.055,41.728C215.055,42.128 215.081,42.638 215.134,43.258C215.187,43.92 215.213,44.464 215.213,44.889C215.213,45.024 215.097,45.092 214.863,45.092C214.629,45.092 214.513,45.024 214.513,44.889C214.383,43.852 214.158,43.126 213.836,42.711C213.514,42.296 212.944,42.087 212.129,42.087L208.909,42.087L208.909,48.374C208.909,49.38 209.402,49.883 210.39,49.883L213.172,49.883C214.185,49.883 215.188,49.554 216.184,48.894C217.179,48.236 217.91,47.414 218.379,46.427C218.413,46.35 218.485,46.312 218.595,46.312C218.715,46.312 218.821,46.345 218.914,46.409C219.008,46.472 219.055,46.551 219.055,46.644Z" style="fill:rgb(35,31,32);fill-rule:nonzero;"/>
        </g>
        <g transform="matrix(4.166667,0,0,4.166667,111.503838,1295.205541)">
            <path d="M219.055,46.644C218.365,48.116 217.804,49.518 217.37,50.854C214.165,50.748 211.881,50.696 210.52,50.696C209.176,50.696 206.896,50.748 203.682,50.854C203.545,50.854 203.478,50.736 203.478,50.498C203.478,50.285 203.545,50.171 203.682,50.154C204.388,50.069 204.928,49.956 205.302,49.815C205.676,49.675 205.938,49.484 206.086,49.247C206.236,49.007 206.31,48.591 206.31,47.993L206.31,35.966C206.31,35.378 206.24,34.963 206.1,34.72C205.959,34.477 205.702,34.284 205.328,34.138C204.953,33.994 204.405,33.878 203.682,33.793C203.545,33.793 203.478,33.678 203.478,33.443C203.478,33.21 203.545,33.093 203.682,33.093C205.825,33.199 208.02,33.251 210.267,33.251C212.53,33.251 214.73,33.199 216.866,33.093C217.062,34.411 217.347,35.711 217.722,36.996C217.722,37.166 217.571,37.251 217.27,37.251C217.124,37.251 217.033,37.192 216.999,37.073C216.369,35.067 215.025,34.065 212.966,34.065L210.389,34.065C209.402,34.065 208.909,34.576 208.909,35.596L208.909,41.273L212.129,41.273C212.988,41.273 213.57,41.078 213.875,40.687C214.18,40.296 214.392,39.602 214.513,38.607C214.513,38.471 214.629,38.403 214.863,38.403C215.097,38.403 215.213,38.471 215.213,38.607C215.213,39.032 215.187,39.567 215.134,40.213C215.081,40.832 215.055,41.338 215.055,41.728C215.055,42.128 215.081,42.638 215.134,43.258C215.187,43.92 215.213,44.464 215.213,44.889C215.213,45.024 215.097,45.092 214.863,45.092C214.629,45.092 214.513,45.024 214.513,44.889C214.383,43.852 214.158,43.126 213.836,42.711C213.514,42.296 212.944,42.087 212.129,42.087L208.909,42.087L208.909,48.374C208.909,49.38 209.402,49.883 210.39,49.883L213.172,49.883C214.185,49.883 215.188,49.554 216.184,48.894C217.179,48.236 217.91,47.414 218.379,46.427C218.413,46.35 218.485,46.312 218.595,46.312C218.715,46.312 218.821,46.345 218.914,46.409C219.008,46.472 219.055,46.551 219.055,46.644Z" style="fill:none;stroke:rgb(35,31,32);stroke-width:0.5px;"/>
        </g>
        <g transform="matrix(4.166667,0,0,4.166667,111.503838,1295.205541)">
            <path d="M245.308,33.449C245.308,33.662 245.24,33.777 245.104,33.793C244.041,33.912 243.312,34.11 242.916,34.381C242.521,34.655 242.314,35.179 242.298,35.954L242.026,51.006C242.026,51.177 241.922,51.261 241.713,51.261C241.608,51.261 241.469,51.193 241.296,51.058L228.151,36.187L227.971,47.996C227.962,48.065 227.958,48.129 227.958,48.188C227.958,48.835 228.162,49.292 228.57,49.561C228.979,49.829 229.715,50.027 230.777,50.154C230.913,50.171 230.981,50.285 230.981,50.498C230.981,50.736 230.913,50.854 230.777,50.854C230.334,50.854 229.727,50.827 228.953,50.775C228.23,50.722 227.671,50.696 227.277,50.696C226.85,50.696 226.273,50.722 225.552,50.775C224.854,50.827 224.314,50.854 223.932,50.854C223.795,50.854 223.728,50.736 223.728,50.498C223.728,50.285 223.804,50.171 223.957,50.154C225.012,50.027 225.734,49.827 226.126,49.559C226.517,49.291 226.726,48.77 226.751,47.993L227.202,35.966L227.202,35.851C227.202,35.161 227.003,34.681 226.603,34.407C226.203,34.135 225.459,33.929 224.37,33.793C224.251,33.793 224.192,33.678 224.192,33.443C224.192,33.21 224.26,33.093 224.396,33.093C224.693,33.093 225.11,33.12 225.646,33.172C226.122,33.225 226.479,33.251 226.718,33.251C227.016,33.251 227.373,33.225 227.791,33.172C228.217,33.12 228.584,33.093 228.891,33.093L241.168,46.845L241.168,35.956C241.168,35.231 240.962,34.722 240.549,34.426C240.137,34.133 239.373,33.922 238.259,33.793C238.123,33.777 238.056,33.662 238.056,33.449C238.056,33.212 238.123,33.093 238.259,33.093C238.718,33.093 239.331,33.12 240.097,33.172C240.811,33.225 241.364,33.251 241.759,33.251C242.186,33.251 242.761,33.225 243.483,33.172C244.181,33.12 244.721,33.093 245.104,33.093C245.24,33.093 245.308,33.212 245.308,33.449Z" style="fill:rgb(35,31,32);fill-rule:nonzero;"/>
        </g>
        <g transform="matrix(4.166667,0,0,4.166667,111.503838,1295.205541)">
            <path d="M245.308,33.449C245.308,33.662 245.24,33.777 245.104,33.793C244.041,33.912 243.312,34.11 242.916,34.381C242.521,34.655 242.314,35.179 242.298,35.954L242.026,51.006C242.026,51.177 241.922,51.261 241.713,51.261C241.608,51.261 241.469,51.193 241.296,51.058L228.151,36.187L227.971,47.996C227.962,48.065 227.958,48.129 227.958,48.188C227.958,48.835 228.162,49.292 228.57,49.561C228.979,49.829 229.715,50.027 230.777,50.154C230.913,50.171 230.981,50.285 230.981,50.498C230.981,50.736 230.913,50.854 230.777,50.854C230.334,50.854 229.727,50.827 228.953,50.775C228.23,50.722 227.671,50.696 227.277,50.696C226.85,50.696 226.273,50.722 225.552,50.775C224.854,50.827 224.314,50.854 223.932,50.854C223.795,50.854 223.728,50.736 223.728,50.498C223.728,50.285 223.804,50.171 223.957,50.154C225.012,50.027 225.734,49.827 226.126,49.559C226.517,49.291 226.726,48.77 226.751,47.993L227.202,35.966L227.202,35.851C227.202,35.161 227.003,34.681 226.603,34.407C226.203,34.135 225.459,33.929 224.37,33.793C224.251,33.793 224.192,33.678 224.192,33.443C224.192,33.21 224.26,33.093 224.396,33.093C224.693,33.093 225.11,33.12 225.646,33.172C226.122,33.225 226.479,33.251 226.718,33.251C227.016,33.251 227.373,33.225 227.791,33.172C228.217,33.12 228.584,33.093 228.891,33.093L241.168,46.845L241.168,35.956C241.168,35.231 240.962,34.722 240.549,34.426C240.137,34.133 239.373,33.922 238.259,33.793C238.123,33.777 238.056,33.662 238.056,33.449C238.056,33.212 238.123,33.093 238.259,33.093C238.718,33.093 239.331,33.12 240.097,33.172C240.811,33.225 241.364,33.251 241.759,33.251C242.186,33.251 242.761,33.225 243.483,33.172C244.181,33.12 244.721,33.093 245.104,33.093C245.24,33.093 245.308,33.212 245.308,33.449Z" style="fill:none;stroke:rgb(35,31,32);stroke-width:0.5px;"/>
        </g>
        <g transform="matrix(4.166667,0,0,4.166667,111.503838,1295.205541)">
            <path d="M265.766,46.644C265.076,48.116 264.516,49.518 264.082,50.854C260.875,50.748 258.592,50.696 257.23,50.696C255.888,50.696 253.607,50.748 250.393,50.854C250.257,50.854 250.188,50.736 250.188,50.498C250.188,50.285 250.257,50.171 250.393,50.154C251.099,50.069 251.638,49.956 252.013,49.815C252.387,49.675 252.647,49.484 252.798,49.247C252.945,49.007 253.021,48.591 253.021,47.993L253.021,35.966C253.021,35.378 252.95,34.963 252.811,34.72C252.67,34.477 252.412,34.284 252.038,34.138C251.664,33.994 251.115,33.878 250.393,33.793C250.257,33.793 250.188,33.678 250.188,33.443C250.188,33.21 250.257,33.093 250.393,33.093C252.536,33.199 254.73,33.251 256.978,33.251C259.242,33.251 261.441,33.199 263.578,33.093C263.772,34.411 264.058,35.711 264.433,36.996C264.433,37.166 264.281,37.251 263.98,37.251C263.833,37.251 263.743,37.192 263.709,37.073C263.079,35.067 261.736,34.065 259.677,34.065L257.1,34.065C256.112,34.065 255.619,34.576 255.619,35.596L255.619,41.273L258.84,41.273C259.698,41.273 260.28,41.078 260.584,40.687C260.89,40.296 261.104,39.602 261.224,38.607C261.224,38.471 261.341,38.403 261.574,38.403C261.807,38.403 261.924,38.471 261.924,38.607C261.924,39.032 261.897,39.567 261.845,40.213C261.793,40.832 261.765,41.338 261.765,41.728C261.765,42.128 261.793,42.638 261.845,43.258C261.897,43.92 261.924,44.464 261.924,44.889C261.924,45.024 261.807,45.092 261.574,45.092C261.341,45.092 261.224,45.024 261.224,44.889C261.095,43.852 260.868,43.126 260.547,42.711C260.225,42.296 259.656,42.087 258.84,42.087L255.619,42.087L255.619,48.374C255.619,49.38 256.112,49.883 257.1,49.883L259.881,49.883C260.894,49.883 261.898,49.554 262.895,48.894C263.89,48.236 264.621,47.414 265.089,46.427C265.123,46.35 265.196,46.312 265.307,46.312C265.425,46.312 265.531,46.345 265.626,46.409C265.719,46.472 265.766,46.551 265.766,46.644Z" style="fill:rgb(35,31,32);fill-rule:nonzero;"/>
        </g>
        <g transform="matrix(4.166667,0,0,4.166667,111.503838,1295.205541)">
            <path d="M265.766,46.644C265.076,48.116 264.516,49.518 264.082,50.854C260.875,50.748 258.592,50.696 257.23,50.696C255.888,50.696 253.607,50.748 250.393,50.854C250.257,50.854 250.188,50.736 250.188,50.498C250.188,50.285 250.257,50.171 250.393,50.154C251.099,50.069 251.638,49.956 252.013,49.815C252.387,49.675 252.647,49.484 252.798,49.247C252.945,49.007 253.021,48.591 253.021,47.993L253.021,35.966C253.021,35.378 252.95,34.963 252.811,34.72C252.67,34.477 252.412,34.284 252.038,34.138C251.664,33.994 251.115,33.878 250.393,33.793C250.257,33.793 250.188,33.678 250.188,33.443C250.188,33.21 250.257,33.093 250.393,33.093C252.536,33.199 254.73,33.251 256.978,33.251C259.242,33.251 261.441,33.199 263.578,33.093C263.772,34.411 264.058,35.711 264.433,36.996C264.433,37.166 264.281,37.251 263.98,37.251C263.833,37.251 263.743,37.192 263.709,37.073C263.079,35.067 261.736,34.065 259.677,34.065L257.1,34.065C256.112,34.065 255.619,34.576 255.619,35.596L255.619,41.273L258.84,41.273C259.698,41.273 260.28,41.078 260.584,40.687C260.89,40.296 261.104,39.602 261.224,38.607C261.224,38.471 261.341,38.403 261.574,38.403C261.807,38.403 261.924,38.471 261.924,38.607C261.924,39.032 261.897,39.567 261.845,40.213C261.793,40.832 261.765,41.338 261.765,41.728C261.765,42.128 261.793,42.638 261.845,43.258C261.897,43.92 261.924,44.464 261.924,44.889C261.924,45.024 261.807,45.092 261.574,45.092C261.341,45.092 261.224,45.024 261.224,44.889C261.095,43.852 260.868,43.126 260.547,42.711C260.225,42.296 259.656,42.087 258.84,42.087L255.619,42.087L255.619,48.374C255.619,49.38 256.112,49.883 257.1,49.883L259.881,49.883C260.894,49.883 261.898,49.554 262.895,48.894C263.89,48.236 264.621,47.414 265.089,46.427C265.123,46.35 265.196,46.312 265.307,46.312C265.425,46.312 265.531,46.345 265.626,46.409C265.719,46.472 265.766,46.551 265.766,46.644Z" style="fill:none;stroke:rgb(35,31,32);stroke-width:0.5px;"/>
        </g>
        <g transform="matrix(4.166667,0,0,4.166667,111.503838,1295.205541)">
            <path d="M282.116,37.683C282.116,35.196 281.031,33.952 278.862,33.952C278.146,33.952 277.604,34.01 277.233,34.124C276.863,34.24 276.616,34.421 276.493,34.668C276.371,34.915 276.309,35.348 276.309,35.972L276.309,41.657C276.803,41.725 277.423,41.759 278.173,41.759C279.543,41.759 280.541,41.435 281.171,40.789C281.801,40.14 282.116,39.107 282.116,37.683ZM288.624,50.498C288.624,50.736 288.557,50.854 288.419,50.854C288.104,50.854 287.59,50.823 286.874,50.763C286.354,50.719 286.01,50.696 285.839,50.696C285.594,50.696 285.205,50.722 284.678,50.775C284.149,50.827 283.762,50.854 283.515,50.854L279.65,44.543C279.106,43.671 278.666,43.112 278.331,42.865C277.995,42.618 277.32,42.494 276.309,42.494L276.309,47.993C276.309,48.58 276.382,48.997 276.531,49.24C276.68,49.483 276.944,49.675 277.322,49.815C277.701,49.956 278.243,50.069 278.949,50.154C279.094,50.171 279.166,50.285 279.166,50.498C279.166,50.736 279.098,50.854 278.962,50.854C278.392,50.854 277.713,50.827 276.922,50.775C276.164,50.722 275.527,50.696 275.009,50.696C274.491,50.696 273.858,50.722 273.111,50.775C272.328,50.827 271.652,50.854 271.082,50.854C270.946,50.854 270.878,50.736 270.878,50.498C270.878,50.285 270.946,50.171 271.082,50.154C271.788,50.069 272.327,49.956 272.701,49.815C273.076,49.675 273.337,49.484 273.486,49.247C273.635,49.007 273.71,48.591 273.71,47.993L273.71,35.966C273.71,35.378 273.64,34.963 273.499,34.72C273.359,34.477 273.103,34.284 272.727,34.138C272.354,33.994 271.805,33.878 271.082,33.793C270.946,33.793 270.878,33.678 270.878,33.443C270.878,33.21 270.946,33.093 271.082,33.093C271.652,33.093 272.328,33.12 273.111,33.172C273.858,33.225 274.492,33.251 275.011,33.251C275.529,33.251 276.167,33.225 276.923,33.172C277.714,33.12 278.394,33.093 278.964,33.093C280.859,33.093 282.325,33.49 283.361,34.284C284.399,35.077 284.918,36.193 284.918,37.629C284.918,38.536 284.575,39.378 283.89,40.155C283.205,40.933 282.278,41.53 281.11,41.951L285.034,48.357C285.376,48.92 285.816,49.332 286.354,49.6C286.893,49.867 287.59,50.052 288.444,50.154C288.564,50.171 288.624,50.285 288.624,50.498Z" style="fill:rgb(35,31,32);fill-rule:nonzero;"/>
        </g>
        <g transform="matrix(4.166667,0,0,4.166667,111.503838,1295.205541)">
            <path d="M282.116,37.683C282.116,35.196 281.031,33.952 278.862,33.952C278.146,33.952 277.604,34.01 277.233,34.124C276.863,34.24 276.616,34.421 276.493,34.668C276.371,34.915 276.309,35.348 276.309,35.972L276.309,41.657C276.803,41.725 277.423,41.759 278.173,41.759C279.543,41.759 280.541,41.435 281.171,40.789C281.801,40.14 282.116,39.107 282.116,37.683ZM288.624,50.498C288.624,50.736 288.557,50.854 288.419,50.854C288.104,50.854 287.59,50.823 286.874,50.763C286.354,50.719 286.01,50.696 285.839,50.696C285.594,50.696 285.205,50.722 284.678,50.775C284.149,50.827 283.762,50.854 283.515,50.854L279.65,44.543C279.106,43.671 278.666,43.112 278.331,42.865C277.995,42.618 277.32,42.494 276.309,42.494L276.309,47.993C276.309,48.58 276.382,48.997 276.531,49.24C276.68,49.483 276.944,49.675 277.322,49.815C277.701,49.956 278.243,50.069 278.949,50.154C279.094,50.171 279.166,50.285 279.166,50.498C279.166,50.736 279.098,50.854 278.962,50.854C278.392,50.854 277.713,50.827 276.922,50.775C276.164,50.722 275.527,50.696 275.009,50.696C274.491,50.696 273.858,50.722 273.111,50.775C272.328,50.827 271.652,50.854 271.082,50.854C270.946,50.854 270.878,50.736 270.878,50.498C270.878,50.285 270.946,50.171 271.082,50.154C271.788,50.069 272.327,49.956 272.701,49.815C273.076,49.675 273.337,49.484 273.486,49.247C273.635,49.007 273.71,48.591 273.71,47.993L273.71,35.966C273.71,35.378 273.64,34.963 273.499,34.72C273.359,34.477 273.103,34.284 272.727,34.138C272.354,33.994 271.805,33.878 271.082,33.793C270.946,33.793 270.878,33.678 270.878,33.443C270.878,33.21 270.946,33.093 271.082,33.093C271.652,33.093 272.328,33.12 273.111,33.172C273.858,33.225 274.492,33.251 275.011,33.251C275.529,33.251 276.167,33.225 276.923,33.172C277.714,33.12 278.394,33.093 278.964,33.093C280.859,33.093 282.325,33.49 283.361,34.284C284.399,35.077 284.918,36.193 284.918,37.629C284.918,38.536 284.575,39.378 283.89,40.155C283.205,40.933 282.278,41.53 281.11,41.951L285.034,48.357C285.376,48.92 285.816,49.332 286.354,49.6C286.893,49.867 287.59,50.052 288.444,50.154C288.564,50.171 288.624,50.285 288.624,50.498Z" style="fill:none;stroke:rgb(35,31,32);stroke-width:0.5px;"/>
        </g>
        <g transform="matrix(4.166667,0,0,4.166667,111.503838,1295.205541)">
            <path d="M303.051,42.077C303.051,42.536 302.948,42.765 302.744,42.765L290.615,42.765C290.396,42.765 290.283,42.536 290.283,42.077C290.283,41.601 290.387,41.364 290.59,41.364L302.744,41.364C302.948,41.364 303.051,41.601 303.051,42.077Z" style="fill:rgb(35,31,32);fill-rule:nonzero;"/>
        </g>
        <g transform="matrix(4.166667,0,0,4.166667,111.503838,1295.205541)">
            <path d="M303.051,42.077C303.051,42.536 302.948,42.765 302.744,42.765L290.615,42.765C290.396,42.765 290.283,42.536 290.283,42.077C290.283,41.601 290.387,41.364 290.59,41.364L302.744,41.364C302.948,41.364 303.051,41.601 303.051,42.077Z" style="fill:none;stroke:rgb(35,31,32);stroke-width:0.5px;"/>
        </g>
        <g transform="matrix(4.166667,0,0,4.166667,111.503838,1295.205541)">
            <path d="M333.716,33.392C333.716,33.494 333.684,33.584 333.619,33.669C333.556,33.751 333.485,33.793 333.409,33.793C332.779,33.853 332.264,34.057 331.864,34.404C331.463,34.751 331.051,35.413 330.625,36.39L324.111,51.058C324.068,51.193 323.948,51.261 323.75,51.261C323.595,51.261 323.475,51.193 323.389,51.058L319.749,43.427L315.547,51.058C315.463,51.193 315.344,51.261 315.193,51.261C315.007,51.261 314.884,51.193 314.824,51.058L308.434,36.39C308.034,35.474 307.611,34.833 307.171,34.469C306.728,34.104 306.111,33.88 305.32,33.793C305.253,33.793 305.188,33.758 305.129,33.687C305.069,33.617 305.04,33.535 305.04,33.443C305.04,33.21 305.107,33.093 305.244,33.093C305.813,33.093 306.409,33.12 307.031,33.172C307.61,33.225 308.154,33.251 308.665,33.251C309.185,33.251 309.798,33.225 310.504,33.172C311.244,33.12 311.897,33.093 312.469,33.093C312.604,33.093 312.673,33.21 312.673,33.443C312.673,33.678 312.63,33.793 312.545,33.793C311.976,33.836 311.526,33.983 311.199,34.231C310.871,34.48 310.707,34.806 310.707,35.209C310.707,35.415 310.775,35.672 310.912,35.981L316.125,47.945L319.188,42.25L316.394,36.39C315.891,35.337 315.479,34.658 315.156,34.353C314.833,34.048 314.344,33.861 313.688,33.793C313.629,33.793 313.571,33.758 313.517,33.687C313.461,33.617 313.434,33.535 313.434,33.443C313.434,33.21 313.492,33.093 313.612,33.093C314.182,33.093 314.706,33.12 315.182,33.172C315.641,33.225 316.129,33.251 316.647,33.251C317.159,33.251 317.698,33.225 318.268,33.172C318.854,33.12 319.433,33.093 320.002,33.093C320.138,33.093 320.207,33.21 320.207,33.443C320.207,33.678 320.163,33.793 320.078,33.793C318.938,33.871 318.369,34.197 318.369,34.772C318.369,35.031 318.501,35.429 318.765,35.972L320.612,39.725L322.454,36.289C322.708,35.801 322.836,35.39 322.836,35.053C322.836,34.265 322.266,33.845 321.126,33.793C321.024,33.793 320.974,33.678 320.974,33.443C320.974,33.36 320.999,33.281 321.05,33.206C321.101,33.131 321.151,33.093 321.204,33.093C321.61,33.093 322.113,33.12 322.709,33.172C323.278,33.225 323.746,33.251 324.111,33.251C324.374,33.251 324.762,33.228 325.272,33.185C325.918,33.124 326.459,33.093 326.893,33.093C326.994,33.093 327.045,33.193 327.045,33.392C327.045,33.661 326.952,33.793 326.766,33.793C326.102,33.861 325.568,34.046 325.164,34.347C324.76,34.646 324.256,35.328 323.652,36.39L321.201,40.931L324.521,47.684L329.428,36.29C329.598,35.869 329.684,35.484 329.684,35.132C329.684,34.291 329.113,33.845 327.973,33.793C327.87,33.793 327.819,33.678 327.819,33.443C327.819,33.21 327.896,33.093 328.049,33.093C328.466,33.093 328.96,33.12 329.529,33.172C330.057,33.225 330.5,33.251 330.857,33.251C331.231,33.251 331.665,33.225 332.158,33.172C332.669,33.12 333.128,33.093 333.536,33.093C333.656,33.093 333.716,33.193 333.716,33.392Z" style="fill:rgb(35,31,32);fill-rule:nonzero;"/>
        </g>
        <g transform="matrix(4.166667,0,0,4.166667,111.503838,1295.205541)">
            <path d="M333.716,33.392C333.716,33.494 333.684,33.584 333.619,33.669C333.556,33.751 333.485,33.793 333.409,33.793C332.779,33.853 332.264,34.057 331.864,34.404C331.463,34.751 331.051,35.413 330.625,36.39L324.111,51.058C324.068,51.193 323.948,51.261 323.75,51.261C323.595,51.261 323.475,51.193 323.389,51.058L319.749,43.427L315.547,51.058C315.463,51.193 315.344,51.261 315.193,51.261C315.007,51.261 314.884,51.193 314.824,51.058L308.434,36.39C308.034,35.474 307.611,34.833 307.171,34.469C306.728,34.104 306.111,33.88 305.32,33.793C305.253,33.793 305.188,33.758 305.129,33.687C305.069,33.617 305.04,33.535 305.04,33.443C305.04,33.21 305.107,33.093 305.244,33.093C305.813,33.093 306.409,33.12 307.031,33.172C307.61,33.225 308.154,33.251 308.665,33.251C309.185,33.251 309.798,33.225 310.504,33.172C311.244,33.12 311.897,33.093 312.469,33.093C312.604,33.093 312.673,33.21 312.673,33.443C312.673,33.678 312.63,33.793 312.545,33.793C311.976,33.836 311.526,33.983 311.199,34.231C310.871,34.48 310.707,34.806 310.707,35.209C310.707,35.415 310.775,35.672 310.912,35.981L316.125,47.945L319.188,42.25L316.394,36.39C315.891,35.337 315.479,34.658 315.156,34.353C314.833,34.048 314.344,33.861 313.688,33.793C313.629,33.793 313.571,33.758 313.517,33.687C313.461,33.617 313.434,33.535 313.434,33.443C313.434,33.21 313.492,33.093 313.612,33.093C314.182,33.093 314.706,33.12 315.182,33.172C315.641,33.225 316.129,33.251 316.647,33.251C317.159,33.251 317.698,33.225 318.268,33.172C318.854,33.12 319.433,33.093 320.002,33.093C320.138,33.093 320.207,33.21 320.207,33.443C320.207,33.678 320.163,33.793 320.078,33.793C318.938,33.871 318.369,34.197 318.369,34.772C318.369,35.031 318.501,35.429 318.765,35.972L320.612,39.725L322.454,36.289C322.708,35.801 322.836,35.39 322.836,35.053C322.836,34.265 322.266,33.845 321.126,33.793C321.024,33.793 320.974,33.678 320.974,33.443C320.974,33.36 320.999,33.281 321.05,33.206C321.101,33.131 321.151,33.093 321.204,33.093C321.61,33.093 322.113,33.12 322.709,33.172C323.278,33.225 323.746,33.251 324.111,33.251C324.374,33.251 324.762,33.228 325.272,33.185C325.918,33.124 326.459,33.093 326.893,33.093C326.994,33.093 327.045,33.193 327.045,33.392C327.045,33.661 326.952,33.793 326.766,33.793C326.102,33.861 325.568,34.046 325.164,34.347C324.76,34.646 324.256,35.328 323.652,36.39L321.201,40.931L324.521,47.684L329.428,36.29C329.598,35.869 329.684,35.484 329.684,35.132C329.684,34.291 329.113,33.845 327.973,33.793C327.87,33.793 327.819,33.678 327.819,33.443C327.819,33.21 327.896,33.093 328.049,33.093C328.466,33.093 328.96,33.12 329.529,33.172C330.057,33.225 330.5,33.251 330.857,33.251C331.231,33.251 331.665,33.225 332.158,33.172C332.669,33.12 333.128,33.093 333.536,33.093C333.656,33.093 333.716,33.193 333.716,33.392Z" style="fill:none;stroke:rgb(35,31,32);stroke-width:0.5px;"/>
        </g>
        <g transform="matrix(4.166667,0,0,4.166667,111.503838,1295.205541)">
            <path d="M345.629,42.923L343.375,36.39L340.951,42.923L345.629,42.923ZM353.352,50.498C353.352,50.736 353.283,50.854 353.146,50.854C352.558,50.854 351.893,50.827 351.15,50.775C350.511,50.722 349.965,50.696 349.513,50.696C348.993,50.696 348.349,50.722 347.58,50.775C346.772,50.827 346.083,50.854 345.515,50.854C345.377,50.854 345.31,50.737 345.31,50.504C345.31,50.271 345.36,50.154 345.463,50.154C346.219,50.12 346.764,50.018 347.096,49.851C347.428,49.685 347.595,49.425 347.595,49.074C347.595,48.85 347.509,48.494 347.338,48.006L345.898,43.736L340.645,43.736L339.187,47.688C338.999,48.219 338.906,48.63 338.906,48.921C338.906,49.674 339.595,50.086 340.973,50.154C341.074,50.154 341.126,50.271 341.126,50.504C341.126,50.737 341.057,50.854 340.921,50.854C340.411,50.854 339.845,50.827 339.225,50.775C338.639,50.722 338.116,50.696 337.657,50.696C337.293,50.696 336.834,50.722 336.282,50.775C335.704,50.827 335.211,50.854 334.803,50.854C334.676,50.854 334.612,50.748 334.612,50.535C334.612,50.298 334.71,50.171 334.906,50.154C335.611,50.086 336.17,49.89 336.583,49.566C336.995,49.243 337.423,48.582 337.863,47.585L343.832,32.935C343.883,32.799 344.003,32.731 344.192,32.731C344.397,32.731 344.527,32.795 344.578,32.924L349.852,47.585C350.15,48.411 350.552,49.021 351.059,49.412C351.566,49.805 352.244,50.052 353.096,50.154C353.267,50.171 353.352,50.285 353.352,50.498Z" style="fill:rgb(35,31,32);fill-rule:nonzero;"/>
        </g>
        <g transform="matrix(4.166667,0,0,4.166667,111.503838,1295.205541)">
            <path d="M345.629,42.923L343.375,36.39L340.951,42.923L345.629,42.923ZM353.352,50.498C353.352,50.736 353.283,50.854 353.146,50.854C352.558,50.854 351.893,50.827 351.15,50.775C350.511,50.722 349.965,50.696 349.513,50.696C348.993,50.696 348.349,50.722 347.58,50.775C346.772,50.827 346.083,50.854 345.515,50.854C345.377,50.854 345.31,50.737 345.31,50.504C345.31,50.271 345.36,50.154 345.463,50.154C346.219,50.12 346.764,50.018 347.096,49.851C347.428,49.685 347.595,49.425 347.595,49.074C347.595,48.85 347.509,48.494 347.338,48.006L345.898,43.736L340.645,43.736L339.187,47.688C338.999,48.219 338.906,48.63 338.906,48.921C338.906,49.674 339.595,50.086 340.973,50.154C341.074,50.154 341.126,50.271 341.126,50.504C341.126,50.737 341.057,50.854 340.921,50.854C340.411,50.854 339.845,50.827 339.225,50.775C338.639,50.722 338.116,50.696 337.657,50.696C337.293,50.696 336.834,50.722 336.282,50.775C335.704,50.827 335.211,50.854 334.803,50.854C334.676,50.854 334.612,50.748 334.612,50.535C334.612,50.298 334.71,50.171 334.906,50.154C335.611,50.086 336.17,49.89 336.583,49.566C336.995,49.243 337.423,48.582 337.863,47.585L343.832,32.935C343.883,32.799 344.003,32.731 344.192,32.731C344.397,32.731 344.527,32.795 344.578,32.924L349.852,47.585C350.15,48.411 350.552,49.021 351.059,49.412C351.566,49.805 352.244,50.052 353.096,50.154C353.267,50.171 353.352,50.285 353.352,50.498Z" style="fill:none;stroke:rgb(35,31,32);stroke-width:0.5px;"/>
        </g>
        <g transform="matrix(4.166667,0,0,4.166667,111.503838,1295.205541)">
            <path d="M373.672,37.302C373.672,37.464 373.52,37.545 373.213,37.545C373.076,37.545 372.991,37.485 372.957,37.365C372.592,36.163 372.068,35.313 371.388,34.813C370.707,34.315 369.699,34.065 368.364,34.065L367.164,34.065C366.747,34.065 366.462,34.133 366.308,34.269C366.155,34.405 366.079,34.661 366.079,35.035L366.079,47.996C366.079,48.583 366.152,48.999 366.303,49.242C366.45,49.484 366.715,49.675 367.093,49.815C367.472,49.956 368.014,50.069 368.721,50.154C368.855,50.171 368.924,50.285 368.924,50.498C368.924,50.736 368.855,50.854 368.721,50.854C368.149,50.854 367.469,50.827 366.678,50.775C365.927,50.722 365.298,50.696 364.793,50.696C364.269,50.696 363.627,50.722 362.867,50.775C362.076,50.827 361.397,50.854 360.827,50.854C360.691,50.854 360.623,50.736 360.623,50.498C360.623,50.285 360.691,50.171 360.827,50.154C361.856,50.035 362.556,49.843 362.926,49.579C363.296,49.315 363.48,48.787 363.48,47.996L363.48,35.035C363.48,34.661 363.404,34.405 363.252,34.269C363.098,34.133 362.81,34.065 362.385,34.065L361.391,34.065C360.192,34.065 359.105,34.37 358.129,34.98C357.152,35.59 356.515,36.381 356.219,37.352C356.176,37.481 356.081,37.545 355.938,37.545C355.647,37.545 355.504,37.452 355.504,37.264C355.981,35.975 356.433,34.518 356.859,32.89C358.017,33.131 360.663,33.251 364.798,33.251C369.045,33.251 371.745,33.131 372.903,32.89C373.022,33.998 373.279,35.469 373.672,37.302Z" style="fill:rgb(35,31,32);fill-rule:nonzero;"/>
        </g>
        <g transform="matrix(4.166667,0,0,4.166667,111.503838,1295.205541)">
            <path d="M373.672,37.302C373.672,37.464 373.52,37.545 373.213,37.545C373.076,37.545 372.991,37.485 372.957,37.365C372.592,36.163 372.068,35.313 371.388,34.813C370.707,34.315 369.699,34.065 368.364,34.065L367.164,34.065C366.747,34.065 366.462,34.133 366.308,34.269C366.155,34.405 366.079,34.661 366.079,35.035L366.079,47.996C366.079,48.583 366.152,48.999 366.303,49.242C366.45,49.484 366.715,49.675 367.093,49.815C367.472,49.956 368.014,50.069 368.721,50.154C368.855,50.171 368.924,50.285 368.924,50.498C368.924,50.736 368.855,50.854 368.721,50.854C368.149,50.854 367.469,50.827 366.678,50.775C365.927,50.722 365.298,50.696 364.793,50.696C364.269,50.696 363.627,50.722 362.867,50.775C362.076,50.827 361.397,50.854 360.827,50.854C360.691,50.854 360.623,50.736 360.623,50.498C360.623,50.285 360.691,50.171 360.827,50.154C361.856,50.035 362.556,49.843 362.926,49.579C363.296,49.315 363.48,48.787 363.48,47.996L363.48,35.035C363.48,34.661 363.404,34.405 363.252,34.269C363.098,34.133 362.81,34.065 362.385,34.065L361.391,34.065C360.192,34.065 359.105,34.37 358.129,34.98C357.152,35.59 356.515,36.381 356.219,37.352C356.176,37.481 356.081,37.545 355.938,37.545C355.647,37.545 355.504,37.452 355.504,37.264C355.981,35.975 356.433,34.518 356.859,32.89C358.017,33.131 360.663,33.251 364.798,33.251C369.045,33.251 371.745,33.131 372.903,32.89C373.022,33.998 373.279,35.469 373.672,37.302Z" style="fill:none;stroke:rgb(35,31,32);stroke-width:0.5px;"/>
        </g>
        <g transform="matrix(4.166667,0,0,4.166667,111.503838,1295.205541)">
            <path d="M394.062,46.644C393.372,48.116 392.812,49.518 392.378,50.854C389.171,50.748 386.889,50.696 385.527,50.696C384.183,50.696 381.903,50.748 378.688,50.854C378.553,50.854 378.485,50.736 378.485,50.498C378.485,50.285 378.553,50.171 378.688,50.154C379.395,50.069 379.935,49.956 380.309,49.815C380.683,49.675 380.944,49.484 381.094,49.247C381.242,49.007 381.316,48.591 381.316,47.993L381.316,35.966C381.316,35.378 381.246,34.963 381.106,34.72C380.965,34.477 380.708,34.284 380.335,34.138C379.96,33.994 379.411,33.878 378.688,33.793C378.553,33.793 378.485,33.678 378.485,33.443C378.485,33.21 378.553,33.093 378.688,33.093C380.832,33.199 383.027,33.251 385.274,33.251C387.538,33.251 389.737,33.199 391.874,33.093C392.069,34.411 392.354,35.711 392.729,36.996C392.729,37.166 392.577,37.251 392.276,37.251C392.13,37.251 392.039,37.192 392.005,37.073C391.375,35.067 390.032,34.065 387.973,34.065L385.396,34.065C384.408,34.065 383.916,34.576 383.916,35.596L383.916,41.273L387.136,41.273C387.994,41.273 388.576,41.078 388.881,40.687C389.187,40.296 389.399,39.602 389.52,38.607C389.52,38.471 389.637,38.403 389.87,38.403C390.103,38.403 390.22,38.471 390.22,38.607C390.22,39.032 390.193,39.567 390.141,40.213C390.089,40.832 390.062,41.338 390.062,41.728C390.062,42.128 390.089,42.638 390.141,43.258C390.193,43.92 390.22,44.464 390.22,44.889C390.22,45.024 390.103,45.092 389.87,45.092C389.637,45.092 389.52,45.024 389.52,44.889C389.391,43.852 389.165,43.126 388.843,42.711C388.521,42.296 387.952,42.087 387.136,42.087L383.916,42.087L383.916,48.374C383.916,49.38 384.408,49.883 385.396,49.883L388.178,49.883C389.19,49.883 390.194,49.554 391.19,48.894C392.187,48.236 392.918,47.414 393.385,46.427C393.419,46.35 393.492,46.312 393.603,46.312C393.722,46.312 393.827,46.345 393.922,46.409C394.015,46.472 394.062,46.551 394.062,46.644Z" style="fill:rgb(35,31,32);fill-rule:nonzero;"/>
        </g>
        <g transform="matrix(4.166667,0,0,4.166667,111.503838,1295.205541)">
            <path d="M394.062,46.644C393.372,48.116 392.812,49.518 392.378,50.854C389.171,50.748 386.889,50.696 385.527,50.696C384.183,50.696 381.903,50.748 378.688,50.854C378.553,50.854 378.485,50.736 378.485,50.498C378.485,50.285 378.553,50.171 378.688,50.154C379.395,50.069 379.935,49.956 380.309,49.815C380.683,49.675 380.944,49.484 381.094,49.247C381.242,49.007 381.316,48.591 381.316,47.993L381.316,35.966C381.316,35.378 381.246,34.963 381.106,34.72C380.965,34.477 380.708,34.284 380.335,34.138C379.96,33.994 379.411,33.878 378.688,33.793C378.553,33.793 378.485,33.678 378.485,33.443C378.485,33.21 378.553,33.093 378.688,33.093C380.832,33.199 383.027,33.251 385.274,33.251C387.538,33.251 389.737,33.199 391.874,33.093C392.069,34.411 392.354,35.711 392.729,36.996C392.729,37.166 392.577,37.251 392.276,37.251C392.13,37.251 392.039,37.192 392.005,37.073C391.375,35.067 390.032,34.065 387.973,34.065L385.396,34.065C384.408,34.065 383.916,34.576 383.916,35.596L383.916,41.273L387.136,41.273C387.994,41.273 388.576,41.078 388.881,40.687C389.187,40.296 389.399,39.602 389.52,38.607C389.52,38.471 389.637,38.403 389.87,38.403C390.103,38.403 390.22,38.471 390.22,38.607C390.22,39.032 390.193,39.567 390.141,40.213C390.089,40.832 390.062,41.338 390.062,41.728C390.062,42.128 390.089,42.638 390.141,43.258C390.193,43.92 390.22,44.464 390.22,44.889C390.22,45.024 390.103,45.092 389.87,45.092C389.637,45.092 389.52,45.024 389.52,44.889C389.391,43.852 389.165,43.126 388.843,42.711C388.521,42.296 387.952,42.087 387.136,42.087L383.916,42.087L383.916,48.374C383.916,49.38 384.408,49.883 385.396,49.883L388.178,49.883C389.19,49.883 390.194,49.554 391.19,48.894C392.187,48.236 392.918,47.414 393.385,46.427C393.419,46.35 393.492,46.312 393.603,46.312C393.722,46.312 393.827,46.345 393.922,46.409C394.015,46.472 394.062,46.551 394.062,46.644Z" style="fill:none;stroke:rgb(35,31,32);stroke-width:0.5px;"/>
        </g>
        <g transform="matrix(4.166667,0,0,4.166667,111.503838,1295.205541)">
            <path d="M410.414,37.683C410.414,35.196 409.329,33.952 407.158,33.952C406.443,33.952 405.901,34.01 405.531,34.124C405.161,34.24 404.914,34.421 404.791,34.668C404.667,34.915 404.606,35.348 404.606,35.972L404.606,41.657C405.099,41.725 405.721,41.759 406.469,41.759C407.839,41.759 408.839,41.435 409.469,40.789C410.099,40.14 410.414,39.107 410.414,37.683ZM416.922,50.498C416.922,50.736 416.854,50.854 416.717,50.854C416.402,50.854 415.887,50.823 415.172,50.763C414.652,50.719 414.308,50.696 414.138,50.696C413.89,50.696 413.502,50.722 412.975,50.775C412.446,50.827 412.059,50.854 411.813,50.854L407.947,44.543C407.404,43.671 406.963,43.112 406.627,42.865C406.291,42.618 405.619,42.494 404.606,42.494L404.606,47.993C404.606,48.58 404.681,48.997 404.829,49.24C404.978,49.483 405.242,49.675 405.62,49.815C405.999,49.956 406.541,50.069 407.246,50.154C407.392,50.171 407.463,50.285 407.463,50.498C407.463,50.736 407.396,50.854 407.26,50.854C406.689,50.854 406.009,50.827 405.218,50.775C404.462,50.722 403.825,50.696 403.307,50.696C402.788,50.696 402.156,50.722 401.407,50.775C400.625,50.827 399.949,50.854 399.379,50.854C399.243,50.854 399.176,50.736 399.176,50.498C399.176,50.285 399.243,50.171 399.379,50.154C400.085,50.069 400.625,49.956 400.999,49.815C401.373,49.675 401.635,49.484 401.784,49.247C401.933,49.007 402.008,48.591 402.008,47.993L402.008,35.966C402.008,35.378 401.937,34.963 401.797,34.72C401.656,34.477 401.398,34.284 401.025,34.138C400.65,33.994 400.103,33.878 399.379,33.793C399.243,33.793 399.176,33.678 399.176,33.443C399.176,33.21 399.243,33.093 399.379,33.093C399.949,33.093 400.625,33.12 401.407,33.172C402.156,33.225 402.79,33.251 403.309,33.251C403.826,33.251 404.464,33.225 405.221,33.172C406.012,33.12 406.69,33.093 407.262,33.093C409.156,33.093 410.623,33.49 411.661,34.284C412.697,35.077 413.216,36.193 413.216,37.629C413.216,38.536 412.873,39.378 412.188,40.155C411.503,40.933 410.576,41.53 409.408,41.951L413.332,48.357C413.674,48.92 414.112,49.332 414.652,49.6C415.19,49.867 415.887,50.052 416.742,50.154C416.861,50.171 416.922,50.285 416.922,50.498Z" style="fill:rgb(35,31,32);fill-rule:nonzero;"/>
        </g>
        <g transform="matrix(4.166667,0,0,4.166667,111.503838,1295.205541)">
            <path d="M410.414,37.683C410.414,35.196 409.329,33.952 407.158,33.952C406.443,33.952 405.901,34.01 405.531,34.124C405.161,34.24 404.914,34.421 404.791,34.668C404.667,34.915 404.606,35.348 404.606,35.972L404.606,41.657C405.099,41.725 405.721,41.759 406.469,41.759C407.839,41.759 408.839,41.435 409.469,40.789C410.099,40.14 410.414,39.107 410.414,37.683ZM416.922,50.498C416.922,50.736 416.854,50.854 416.717,50.854C416.402,50.854 415.887,50.823 415.172,50.763C414.652,50.719 414.308,50.696 414.138,50.696C413.89,50.696 413.502,50.722 412.975,50.775C412.446,50.827 412.059,50.854 411.813,50.854L407.947,44.543C407.404,43.671 406.963,43.112 406.627,42.865C406.291,42.618 405.619,42.494 404.606,42.494L404.606,47.993C404.606,48.58 404.681,48.997 404.829,49.24C404.978,49.483 405.242,49.675 405.62,49.815C405.999,49.956 406.541,50.069 407.246,50.154C407.392,50.171 407.463,50.285 407.463,50.498C407.463,50.736 407.396,50.854 407.26,50.854C406.689,50.854 406.009,50.827 405.218,50.775C404.462,50.722 403.825,50.696 403.307,50.696C402.788,50.696 402.156,50.722 401.407,50.775C400.625,50.827 399.949,50.854 399.379,50.854C399.243,50.854 399.176,50.736 399.176,50.498C399.176,50.285 399.243,50.171 399.379,50.154C400.085,50.069 400.625,49.956 400.999,49.815C401.373,49.675 401.635,49.484 401.784,49.247C401.933,49.007 402.008,48.591 402.008,47.993L402.008,35.966C402.008,35.378 401.937,34.963 401.797,34.72C401.656,34.477 401.398,34.284 401.025,34.138C400.65,33.994 400.103,33.878 399.379,33.793C399.243,33.793 399.176,33.678 399.176,33.443C399.176,33.21 399.243,33.093 399.379,33.093C399.949,33.093 400.625,33.12 401.407,33.172C402.156,33.225 402.79,33.251 403.309,33.251C403.826,33.251 404.464,33.225 405.221,33.172C406.012,33.12 406.69,33.093 407.262,33.093C409.156,33.093 410.623,33.49 411.661,34.284C412.697,35.077 413.216,36.193 413.216,37.629C413.216,38.536 412.873,39.378 412.188,40.155C411.503,40.933 410.576,41.53 409.408,41.951L413.332,48.357C413.674,48.92 414.112,49.332 414.652,49.6C415.19,49.867 415.887,50.052 416.742,50.154C416.861,50.171 416.922,50.285 416.922,50.498Z" style="fill:none;stroke:rgb(35,31,32);stroke-width:0.5px;"/>
        </g>
        <g transform="matrix(4.166667,0,0,4.166667,111.503838,1295.205541)">
            <path d="M436.875,46.154C436.473,47.653 436.156,49.219 435.926,50.854C432.668,50.748 430.352,50.696 428.973,50.696C427.611,50.696 425.323,50.748 422.109,50.854C421.974,50.854 421.906,50.736 421.906,50.498C421.906,50.285 421.974,50.171 422.109,50.154C423.139,50.035 423.838,49.843 424.208,49.579C424.578,49.315 424.763,48.787 424.763,47.993L424.763,35.966C424.763,35.369 424.688,34.95 424.54,34.707C424.39,34.464 424.129,34.274 423.755,34.133C423.38,33.991 422.832,33.878 422.109,33.793C421.974,33.793 421.906,33.678 421.906,33.443C421.906,33.21 421.974,33.093 422.109,33.093C422.68,33.093 423.36,33.12 424.151,33.172C424.907,33.225 425.544,33.251 426.063,33.251C426.581,33.251 427.213,33.225 427.962,33.172C428.744,33.12 429.42,33.093 429.99,33.093C430.126,33.093 430.193,33.21 430.193,33.443C430.193,33.678 430.126,33.793 429.99,33.793C429.275,33.878 428.73,33.991 428.357,34.133C427.981,34.272 427.724,34.463 427.578,34.7C427.434,34.94 427.361,35.361 427.361,35.966L427.361,48.374C427.361,49.38 427.854,49.883 428.843,49.883L431.373,49.883C432.419,49.883 433.305,49.604 434.029,49.047C434.752,48.489 435.467,47.448 436.175,45.923C436.209,45.855 436.289,45.821 436.416,45.821C436.526,45.821 436.631,45.855 436.729,45.924C436.826,45.992 436.875,46.068 436.875,46.154Z" style="fill:rgb(35,31,32);fill-rule:nonzero;"/>
        </g>
        <g transform="matrix(4.166667,0,0,4.166667,111.503838,1295.205541)">
            <path d="M436.875,46.154C436.473,47.653 436.156,49.219 435.926,50.854C432.668,50.748 430.352,50.696 428.973,50.696C427.611,50.696 425.323,50.748 422.109,50.854C421.974,50.854 421.906,50.736 421.906,50.498C421.906,50.285 421.974,50.171 422.109,50.154C423.139,50.035 423.838,49.843 424.208,49.579C424.578,49.315 424.763,48.787 424.763,47.993L424.763,35.966C424.763,35.369 424.688,34.95 424.54,34.707C424.39,34.464 424.129,34.274 423.755,34.133C423.38,33.991 422.832,33.878 422.109,33.793C421.974,33.793 421.906,33.678 421.906,33.443C421.906,33.21 421.974,33.093 422.109,33.093C422.68,33.093 423.36,33.12 424.151,33.172C424.907,33.225 425.544,33.251 426.063,33.251C426.581,33.251 427.213,33.225 427.962,33.172C428.744,33.12 429.42,33.093 429.99,33.093C430.126,33.093 430.193,33.21 430.193,33.443C430.193,33.678 430.126,33.793 429.99,33.793C429.275,33.878 428.73,33.991 428.357,34.133C427.981,34.272 427.724,34.463 427.578,34.7C427.434,34.94 427.361,35.361 427.361,35.966L427.361,48.374C427.361,49.38 427.854,49.883 428.843,49.883L431.373,49.883C432.419,49.883 433.305,49.604 434.029,49.047C434.752,48.489 435.467,47.448 436.175,45.923C436.209,45.855 436.289,45.821 436.416,45.821C436.526,45.821 436.631,45.855 436.729,45.924C436.826,45.992 436.875,46.068 436.875,46.154Z" style="fill:none;stroke:rgb(35,31,32);stroke-width:0.5px;"/>
        </g>
        <g transform="matrix(4.166667,0,0,4.166667,111.503838,1295.205541)">
            <path d="M458.169,42.079C458.169,39.57 457.563,37.52 456.352,35.931C455.14,34.34 453.548,33.545 451.576,33.545C449.595,33.545 448.003,34.34 446.8,35.931C445.597,37.52 444.994,39.57 444.994,42.079C444.994,44.571 445.592,46.589 446.787,48.133C447.98,49.677 449.578,50.448 451.576,50.448C453.564,50.448 455.16,49.677 456.364,48.133C457.567,46.589 458.169,44.571 458.169,42.079ZM460.971,42.079C460.971,44.774 460.104,46.979 458.369,48.691C456.637,50.405 454.371,51.261 451.576,51.261C448.779,51.261 446.516,50.405 444.787,48.691C443.057,46.979 442.192,44.774 442.192,42.079C442.192,39.375 443.064,37.142 444.806,35.378C446.548,33.614 448.805,32.731 451.576,32.731C454.354,32.731 456.615,33.614 458.358,35.378C460.1,37.142 460.971,39.375 460.971,42.079Z" style="fill:rgb(35,31,32);fill-rule:nonzero;"/>
        </g>
        <g transform="matrix(4.166667,0,0,4.166667,111.503838,1295.205541)">
            <path d="M458.169,42.079C458.169,39.57 457.563,37.52 456.352,35.931C455.14,34.34 453.548,33.545 451.576,33.545C449.595,33.545 448.003,34.34 446.8,35.931C445.597,37.52 444.994,39.57 444.994,42.079C444.994,44.571 445.592,46.589 446.787,48.133C447.98,49.677 449.578,50.448 451.576,50.448C453.564,50.448 455.16,49.677 456.364,48.133C457.567,46.589 458.169,44.571 458.169,42.079ZM460.971,42.079C460.971,44.774 460.104,46.979 458.369,48.691C456.637,50.405 454.371,51.261 451.576,51.261C448.779,51.261 446.516,50.405 444.787,48.691C443.057,46.979 442.192,44.774 442.192,42.079C442.192,39.375 443.064,37.142 444.806,35.378C446.548,33.614 448.805,32.731 451.576,32.731C454.354,32.731 456.615,33.614 458.358,35.378C460.1,37.142 460.971,39.375 460.971,42.079Z" style="fill:none;stroke:rgb(35,31,32);stroke-width:0.5px;"/>
        </g>
        <g transform="matrix(4.166667,0,0,4.166667,111.503838,1295.205541)">
            <path d="M483.35,42.079C483.35,39.57 482.743,37.52 481.531,35.931C480.32,34.34 478.729,33.545 476.755,33.545C474.775,33.545 473.182,34.34 471.98,35.931C470.776,37.52 470.175,39.57 470.175,42.079C470.175,44.571 470.772,46.589 471.967,48.133C473.162,49.677 474.758,50.448 476.755,50.448C478.745,50.448 480.341,49.677 481.544,48.133C482.748,46.589 483.35,44.571 483.35,42.079ZM486.151,42.079C486.151,44.774 485.284,46.979 483.551,48.691C481.816,50.405 479.552,51.261 476.755,51.261C473.959,51.261 471.696,50.405 469.968,48.691C468.237,46.979 467.373,44.774 467.373,42.079C467.373,39.375 468.244,37.142 469.985,35.378C471.729,33.614 473.984,32.731 476.755,32.731C479.534,32.731 481.796,33.614 483.537,35.378C485.28,37.142 486.151,39.375 486.151,42.079Z" style="fill:rgb(35,31,32);fill-rule:nonzero;"/>
        </g>
        <g transform="matrix(4.166667,0,0,4.166667,111.503838,1295.205541)">
            <path d="M483.35,42.079C483.35,39.57 482.743,37.52 481.531,35.931C480.32,34.34 478.729,33.545 476.755,33.545C474.775,33.545 473.182,34.34 471.98,35.931C470.776,37.52 470.175,39.57 470.175,42.079C470.175,44.571 470.772,46.589 471.967,48.133C473.162,49.677 474.758,50.448 476.755,50.448C478.745,50.448 480.341,49.677 481.544,48.133C482.748,46.589 483.35,44.571 483.35,42.079ZM486.151,42.079C486.151,44.774 485.284,46.979 483.551,48.691C481.816,50.405 479.552,51.261 476.755,51.261C473.959,51.261 471.696,50.405 469.968,48.691C468.237,46.979 467.373,44.774 467.373,42.079C467.373,39.375 468.244,37.142 469.985,35.378C471.729,33.614 473.984,32.731 476.755,32.731C479.534,32.731 481.796,33.614 483.537,35.378C485.28,37.142 486.151,39.375 486.151,42.079Z" style="fill:none;stroke:rgb(35,31,32);stroke-width:0.5px;"/>
        </g>
        <g transform="matrix(4.166667,0,0,4.166667,111.503838,1295.205541)">
            <path d="M124.643,67.225L124.643,83.902L123.287,83.902C122.843,80.702 122.048,78.155 120.903,76.258C119.757,74.361 118.124,72.857 116.005,71.743C113.885,70.63 111.692,70.072 109.425,70.072C106.862,70.072 104.743,70.825 103.067,72.332C101.391,73.839 100.554,75.552 100.554,77.473C100.554,78.943 101.083,80.285 102.143,81.494C103.669,83.273 107.302,85.646 113.04,88.609C117.719,91.03 120.912,92.886 122.619,94.176C124.326,95.47 125.64,96.993 126.561,98.746C127.481,100.501 127.942,102.336 127.942,104.257C127.942,107.908 126.472,111.055 123.531,113.697C120.59,116.341 116.807,117.662 112.182,117.662C110.729,117.662 109.364,117.554 108.084,117.339C107.322,117.22 105.741,116.785 103.341,116.033C100.941,115.282 99.422,114.905 98.782,114.905C98.167,114.905 97.681,115.084 97.325,115.443C96.967,115.8 96.703,116.54 96.531,117.662L95.175,117.662L95.175,101.121L96.531,101.121C97.171,104.587 98.033,107.181 99.116,108.904C100.2,110.624 101.856,112.056 104.084,113.194C106.313,114.335 108.757,114.905 111.416,114.905C114.494,114.905 116.926,114.121 118.711,112.552C120.496,110.983 121.389,109.13 121.389,106.99C121.389,105.802 121.05,104.601 120.375,103.39C119.7,102.178 118.65,101.048 117.227,100.004C116.269,99.289 113.645,97.782 109.354,95.478C105.063,93.177 102.013,91.338 100.202,89.962C98.391,88.586 97.018,87.068 96.082,85.407C95.146,83.748 94.678,81.92 94.678,79.927C94.678,76.464 96.058,73.481 98.817,70.979C101.578,68.476 105.089,67.225 109.352,67.225C112.013,67.225 114.834,67.85 117.817,69.099C119.197,69.686 120.17,69.982 120.736,69.982C121.376,69.982 121.9,69.8 122.307,69.433C122.714,69.068 123.04,68.332 123.287,67.225L124.643,67.225Z" style="fill:rgb(35,31,32);fill-rule:nonzero;"/>
        </g>
        <g transform="matrix(4.166667,0,0,4.166667,111.503838,1295.205541)">
            <path d="M124.643,67.225L124.643,83.902L123.287,83.902C122.843,80.702 122.048,78.155 120.903,76.258C119.757,74.361 118.124,72.857 116.005,71.743C113.885,70.63 111.692,70.072 109.425,70.072C106.862,70.072 104.743,70.825 103.067,72.332C101.391,73.839 100.554,75.552 100.554,77.473C100.554,78.943 101.083,80.285 102.143,81.494C103.669,83.273 107.302,85.646 113.04,88.609C117.719,91.03 120.912,92.886 122.619,94.176C124.326,95.47 125.64,96.993 126.561,98.746C127.481,100.501 127.942,102.336 127.942,104.257C127.942,107.908 126.472,111.055 123.531,113.697C120.59,116.341 116.807,117.662 112.182,117.662C110.729,117.662 109.364,117.554 108.084,117.339C107.322,117.22 105.741,116.785 103.341,116.033C100.941,115.282 99.422,114.905 98.782,114.905C98.167,114.905 97.681,115.084 97.325,115.443C96.967,115.8 96.703,116.54 96.531,117.662L95.175,117.662L95.175,101.121L96.531,101.121C97.171,104.587 98.033,107.181 99.116,108.904C100.2,110.624 101.856,112.056 104.084,113.194C106.313,114.335 108.757,114.905 111.416,114.905C114.494,114.905 116.926,114.121 118.711,112.552C120.496,110.983 121.389,109.13 121.389,106.99C121.389,105.802 121.05,104.601 120.375,103.39C119.7,102.178 118.65,101.048 117.227,100.004C116.269,99.289 113.645,97.782 109.354,95.478C105.063,93.177 102.013,91.338 100.202,89.962C98.391,88.586 97.018,87.068 96.082,85.407C95.146,83.748 94.678,81.92 94.678,79.927C94.678,76.464 96.058,73.481 98.817,70.979C101.578,68.476 105.089,67.225 109.352,67.225C112.013,67.225 114.834,67.85 117.817,69.099C119.197,69.686 120.17,69.982 120.736,69.982C121.376,69.982 121.9,69.8 122.307,69.433C122.714,69.068 123.04,68.332 123.287,67.225L124.643,67.225Z" style="fill:none;stroke:rgb(35,31,32);stroke-width:0.5px;"/>
        </g>
        <g transform="matrix(4.166667,0,0,4.166667,111.503838,1295.205541)">
            <path d="M160.441,68.309L177.902,68.309L177.902,69.62L176.943,69.62C176.304,69.62 175.37,69.894 174.141,70.441C172.912,70.989 171.793,71.774 170.786,72.796C169.777,73.819 168.536,75.484 167.061,77.79L154.986,96.107L154.986,108.216C154.986,111.183 155.331,113.035 156.021,113.77C156.958,114.767 158.436,115.266 160.456,115.266L162.082,115.266L162.082,116.577L140.795,116.577L140.795,115.266L142.569,115.266C144.688,115.266 146.191,114.649 147.078,113.414C147.62,112.655 147.891,110.922 147.891,108.216L147.891,96.766L134.201,76.548C132.578,74.181 131.478,72.701 130.899,72.107C130.322,71.515 129.123,70.805 127.305,69.974C126.813,69.739 126.1,69.62 125.166,69.62L125.166,68.309L146.526,68.309L146.526,69.62L145.419,69.62C144.264,69.62 143.201,69.881 142.229,70.404C141.258,70.927 140.773,71.71 140.773,72.756C140.773,73.61 141.523,75.155 143.022,77.387L153.473,92.942L163.281,78.063C164.755,75.83 165.494,74.169 165.494,73.076C165.494,72.411 165.315,71.816 164.959,71.294C164.603,70.771 164.092,70.362 163.429,70.065C162.765,69.768 161.769,69.62 160.441,69.62L160.441,68.309Z" style="fill:rgb(35,31,32);fill-rule:nonzero;"/>
        </g>
        <g transform="matrix(4.166667,0,0,4.166667,111.503838,1295.205541)">
            <path d="M160.441,68.309L177.902,68.309L177.902,69.62L176.943,69.62C176.304,69.62 175.37,69.894 174.141,70.441C172.912,70.989 171.793,71.774 170.786,72.796C169.777,73.819 168.536,75.484 167.061,77.79L154.986,96.107L154.986,108.216C154.986,111.183 155.331,113.035 156.021,113.77C156.958,114.767 158.436,115.266 160.456,115.266L162.082,115.266L162.082,116.577L140.795,116.577L140.795,115.266L142.569,115.266C144.688,115.266 146.191,114.649 147.078,113.414C147.62,112.655 147.891,110.922 147.891,108.216L147.891,96.766L134.201,76.548C132.578,74.181 131.478,72.701 130.899,72.107C130.322,71.515 129.123,70.805 127.305,69.974C126.813,69.739 126.1,69.62 125.166,69.62L125.166,68.309L146.526,68.309L146.526,69.62L145.419,69.62C144.264,69.62 143.201,69.881 142.229,70.404C141.258,70.927 140.773,71.71 140.773,72.756C140.773,73.61 141.523,75.155 143.022,77.387L153.473,92.942L163.281,78.063C164.755,75.83 165.494,74.169 165.494,73.076C165.494,72.411 165.315,71.816 164.959,71.294C164.603,70.771 164.092,70.362 163.429,70.065C162.765,69.768 161.769,69.62 160.441,69.62L160.441,68.309Z" style="fill:none;stroke:rgb(35,31,32);stroke-width:0.5px;"/>
        </g>
        <g transform="matrix(4.166667,0,0,4.166667,111.503838,1295.205541)">
            <path d="M205.322,116.577L186.024,75.963L186.024,108.216C186.024,111.183 186.356,113.035 187.021,113.77C187.933,114.767 189.374,115.266 191.346,115.266L193.12,115.266L193.12,116.577L175.674,116.577L175.674,115.266L177.448,115.266C179.567,115.266 181.07,114.649 181.957,113.414C182.499,112.655 182.77,110.922 182.77,108.216L182.77,76.67C182.77,74.534 182.523,72.991 182.03,72.042C181.686,71.353 181.051,70.778 180.127,70.315C179.204,69.852 177.719,69.62 175.674,69.62L175.674,68.309L189.885,68.309L207.967,106.045L225.849,68.309L240.031,68.309L240.031,69.62L238.294,69.62C236.15,69.62 234.636,70.237 233.749,71.472C233.206,72.231 232.936,73.964 232.936,76.67L232.936,108.216C232.936,111.183 233.28,113.035 233.971,113.77C234.882,114.767 236.323,115.266 238.294,115.266L240.031,115.266L240.031,116.577L218.745,116.577L218.745,115.266L220.519,115.266C222.662,115.266 224.165,114.649 225.027,113.414C225.569,112.655 225.84,110.922 225.84,108.216L225.84,75.963L206.542,116.577L205.322,116.577Z" style="fill:rgb(35,31,32);fill-rule:nonzero;"/>
        </g>
        <g transform="matrix(4.166667,0,0,4.166667,111.503838,1295.205541)">
            <path d="M205.322,116.577L186.024,75.963L186.024,108.216C186.024,111.183 186.356,113.035 187.021,113.77C187.933,114.767 189.374,115.266 191.346,115.266L193.12,115.266L193.12,116.577L175.674,116.577L175.674,115.266L177.448,115.266C179.567,115.266 181.07,114.649 181.957,113.414C182.499,112.655 182.77,110.922 182.77,108.216L182.77,76.67C182.77,74.534 182.523,72.991 182.03,72.042C181.686,71.353 181.051,70.778 180.127,70.315C179.204,69.852 177.719,69.62 175.674,69.62L175.674,68.309L189.885,68.309L207.967,106.045L225.849,68.309L240.031,68.309L240.031,69.62L238.294,69.62C236.15,69.62 234.636,70.237 233.749,71.472C233.206,72.231 232.936,73.964 232.936,76.67L232.936,108.216C232.936,111.183 233.28,113.035 233.971,113.77C234.882,114.767 236.323,115.266 238.294,115.266L240.031,115.266L240.031,116.577L218.745,116.577L218.745,115.266L220.519,115.266C222.662,115.266 224.165,114.649 225.027,113.414C225.569,112.655 225.84,110.922 225.84,108.216L225.84,75.963L206.542,116.577L205.322,116.577Z" style="fill:none;stroke:rgb(35,31,32);stroke-width:0.5px;"/>
        </g>
        <g transform="matrix(4.166667,0,0,4.166667,111.503838,1295.205541)">
            <path d="M255.611,91.957C256.906,92.195 258.056,92.373 259.058,92.492C260.062,92.61 260.917,92.669 261.626,92.669C264.168,92.669 266.363,91.715 268.207,89.804C270.055,87.893 270.977,85.418 270.977,82.381C270.977,80.293 270.536,78.352 269.656,76.56C268.776,74.768 267.529,73.426 265.917,72.536C264.303,71.647 262.468,71.202 260.414,71.202C259.169,71.202 257.566,71.428 255.611,71.878L255.611,91.957ZM255.611,93.981L255.611,108.035C255.611,111.076 255.953,112.963 256.637,113.699C257.564,114.744 258.967,115.266 260.846,115.266L262.752,115.266L262.752,116.577L241.375,116.577L241.375,115.266L243.252,115.266C245.361,115.266 246.871,114.601 247.779,113.27C248.27,112.536 248.516,110.79 248.516,108.035L248.516,76.851C248.516,73.812 248.185,71.924 247.521,71.188C246.564,70.142 245.142,69.62 243.252,69.62L241.375,69.62L241.375,68.309L259.683,68.309C264.152,68.309 267.677,68.754 270.255,69.644C272.834,70.534 275.008,72.036 276.776,74.148C278.544,76.261 279.429,78.765 279.429,81.66C279.429,85.6 278.085,88.804 275.397,91.272C272.71,93.741 268.912,94.974 264.004,94.974C262.801,94.974 261.5,94.891 260.101,94.727C258.702,94.56 257.204,94.312 255.611,93.981Z" style="fill:rgb(35,31,32);fill-rule:nonzero;"/>
        </g>
        <g transform="matrix(4.166667,0,0,4.166667,111.503838,1295.205541)">
            <path d="M255.611,91.957C256.906,92.195 258.056,92.373 259.058,92.492C260.062,92.61 260.917,92.669 261.626,92.669C264.168,92.669 266.363,91.715 268.207,89.804C270.055,87.893 270.977,85.418 270.977,82.381C270.977,80.293 270.536,78.352 269.656,76.56C268.776,74.768 267.529,73.426 265.917,72.536C264.303,71.647 262.468,71.202 260.414,71.202C259.169,71.202 257.566,71.428 255.611,71.878L255.611,91.957ZM255.611,93.981L255.611,108.035C255.611,111.076 255.953,112.963 256.637,113.699C257.564,114.744 258.967,115.266 260.846,115.266L262.752,115.266L262.752,116.577L241.375,116.577L241.375,115.266L243.252,115.266C245.361,115.266 246.871,114.601 247.779,113.27C248.27,112.536 248.516,110.79 248.516,108.035L248.516,76.851C248.516,73.812 248.185,71.924 247.521,71.188C246.564,70.142 245.142,69.62 243.252,69.62L241.375,69.62L241.375,68.309L259.683,68.309C264.152,68.309 267.677,68.754 270.255,69.644C272.834,70.534 275.008,72.036 276.776,74.148C278.544,76.261 279.429,78.765 279.429,81.66C279.429,85.6 278.085,88.804 275.397,91.272C272.71,93.741 268.912,94.974 264.004,94.974C262.801,94.974 261.5,94.891 260.101,94.727C258.702,94.56 257.204,94.312 255.611,93.981Z" style="fill:none;stroke:rgb(35,31,32);stroke-width:0.5px;"/>
        </g>
        <g transform="matrix(4.166667,0,0,4.166667,111.503838,1295.205541)">
            <path d="M294.645,90.726L317.875,90.726L317.875,76.851C317.875,74.394 317.715,72.775 317.396,71.994C317.15,71.404 316.637,70.895 315.851,70.472C314.795,69.904 313.679,69.62 312.501,69.62L310.734,69.62L310.734,68.309L332.111,68.309L332.111,69.62L330.345,69.62C329.166,69.62 328.051,69.892 326.994,70.435C326.209,70.813 325.675,71.387 325.393,72.155C325.11,72.924 324.971,74.488 324.971,76.851L324.971,108.035C324.971,110.481 325.13,112.096 325.449,112.879C325.695,113.474 326.197,113.984 326.958,114.412C328.037,114.982 329.166,115.266 330.345,115.266L332.111,115.266L332.111,116.577L310.734,116.577L310.734,115.266L312.501,115.266C314.537,115.266 316.021,114.684 316.955,113.52C317.568,112.761 317.875,110.932 317.875,108.035L317.875,93.348L294.645,93.348L294.645,108.035C294.645,110.481 294.803,112.096 295.121,112.879C295.365,113.474 295.878,113.984 296.659,114.412C297.708,114.982 298.818,115.266 299.99,115.266L301.785,115.266L301.785,116.577L280.408,116.577L280.408,115.266L282.176,115.266C284.236,115.266 285.733,114.684 286.667,113.52C287.254,112.761 287.549,110.932 287.549,108.035L287.549,76.851C287.549,74.394 287.39,72.775 287.07,71.994C286.825,71.404 286.322,70.895 285.563,70.472C284.481,69.904 283.354,69.62 282.176,69.62L280.408,69.62L280.408,68.309L301.785,68.309L301.785,69.62L299.99,69.62C298.818,69.62 297.708,69.892 296.659,70.435C295.902,70.813 295.378,71.387 295.084,72.155C294.79,72.924 294.645,74.488 294.645,76.851L294.645,90.726Z" style="fill:rgb(35,31,32);fill-rule:nonzero;"/>
        </g>
        <g transform="matrix(4.166667,0,0,4.166667,111.503838,1295.205541)">
            <path d="M294.645,90.726L317.875,90.726L317.875,76.851C317.875,74.394 317.715,72.775 317.396,71.994C317.15,71.404 316.637,70.895 315.851,70.472C314.795,69.904 313.679,69.62 312.501,69.62L310.734,69.62L310.734,68.309L332.111,68.309L332.111,69.62L330.345,69.62C329.166,69.62 328.051,69.892 326.994,70.435C326.209,70.813 325.675,71.387 325.393,72.155C325.11,72.924 324.971,74.488 324.971,76.851L324.971,108.035C324.971,110.481 325.13,112.096 325.449,112.879C325.695,113.474 326.197,113.984 326.958,114.412C328.037,114.982 329.166,115.266 330.345,115.266L332.111,115.266L332.111,116.577L310.734,116.577L310.734,115.266L312.501,115.266C314.537,115.266 316.021,114.684 316.955,113.52C317.568,112.761 317.875,110.932 317.875,108.035L317.875,93.348L294.645,93.348L294.645,108.035C294.645,110.481 294.803,112.096 295.121,112.879C295.365,113.474 295.878,113.984 296.659,114.412C297.708,114.982 298.818,115.266 299.99,115.266L301.785,115.266L301.785,116.577L280.408,116.577L280.408,115.266L282.176,115.266C284.236,115.266 285.733,114.684 286.667,113.52C287.254,112.761 287.549,110.932 287.549,108.035L287.549,76.851C287.549,74.394 287.39,72.775 287.07,71.994C286.825,71.404 286.322,70.895 285.563,70.472C284.481,69.904 283.354,69.62 282.176,69.62L280.408,69.62L280.408,68.309L301.785,68.309L301.785,69.62L299.99,69.62C298.818,69.62 297.708,69.892 296.659,70.435C295.902,70.813 295.378,71.387 295.084,72.155C294.79,72.924 294.645,74.488 294.645,76.851L294.645,90.726Z" style="fill:none;stroke:rgb(35,31,32);stroke-width:0.5px;"/>
        </g>
        <g transform="matrix(4.166667,0,0,4.166667,111.503838,1295.205541)">
            <path d="M356.058,69.801C351.583,69.801 347.993,71.402 345.287,74.604C341.92,78.59 340.235,84.426 340.235,92.11C340.235,99.985 341.98,106.045 345.474,110.29C348.152,113.518 351.693,115.131 356.094,115.131C360.791,115.131 364.67,113.364 367.731,109.83C370.792,106.295 372.323,100.721 372.323,93.106C372.323,84.852 370.639,78.697 367.271,74.641C364.565,71.415 360.828,69.801 356.058,69.801ZM356.758,67.225C363.252,67.225 368.877,69.602 373.635,74.356C378.395,79.111 380.774,85.044 380.774,92.16C380.774,99.487 378.376,105.568 373.581,110.406C368.785,115.242 362.98,117.662 356.167,117.662C349.281,117.662 343.496,115.302 338.812,110.584C334.127,105.864 331.783,99.759 331.783,92.265C331.783,84.606 334.488,78.358 339.9,73.519C344.598,69.324 350.216,67.225 356.758,67.225Z" style="fill:rgb(35,31,32);fill-rule:nonzero;"/>
        </g>
        <g transform="matrix(4.166667,0,0,4.166667,111.503838,1295.205541)">
            <path d="M356.058,69.801C351.583,69.801 347.993,71.402 345.287,74.604C341.92,78.59 340.235,84.426 340.235,92.11C340.235,99.985 341.98,106.045 345.474,110.29C348.152,113.518 351.693,115.131 356.094,115.131C360.791,115.131 364.67,113.364 367.731,109.83C370.792,106.295 372.323,100.721 372.323,93.106C372.323,84.852 370.639,78.697 367.271,74.641C364.565,71.415 360.828,69.801 356.058,69.801ZM356.758,67.225C363.252,67.225 368.877,69.602 373.635,74.356C378.395,79.111 380.774,85.044 380.774,92.16C380.774,99.487 378.376,105.568 373.581,110.406C368.785,115.242 362.98,117.662 356.167,117.662C349.281,117.662 343.496,115.302 338.812,110.584C334.127,105.864 331.783,99.759 331.783,92.265C331.783,84.606 334.488,78.358 339.9,73.519C344.598,69.324 350.216,67.225 356.758,67.225Z" style="fill:none;stroke:rgb(35,31,32);stroke-width:0.5px;"/>
        </g>
        <g transform="matrix(4.166667,0,0,4.166667,111.503838,1295.205541)">
            <path d="M378.148,68.309L391.728,68.309L422.297,104.472L422.297,76.67C422.297,73.703 421.951,71.851 421.262,71.116C420.35,70.119 418.909,69.62 416.938,69.62L415.201,69.62L415.201,68.309L432.646,68.309L432.646,69.62L430.873,69.62C428.753,69.62 427.25,70.237 426.363,71.472C425.82,72.231 425.551,73.964 425.551,76.67L425.551,117.361L424.219,117.361L391.248,78.474L391.248,108.216C391.248,111.183 391.58,113.035 392.247,113.77C393.182,114.767 394.624,115.266 396.57,115.266L398.344,115.266L398.344,116.577L380.898,116.577L380.898,115.266L382.636,115.266C384.778,115.266 386.295,114.649 387.183,113.414C387.723,112.655 387.994,110.922 387.994,108.216L387.994,74.637C386.544,73 385.443,71.921 384.693,71.4C383.943,70.878 382.844,70.391 381.393,69.941C380.68,69.726 379.598,69.62 378.148,69.62L378.148,68.309Z" style="fill:rgb(35,31,32);fill-rule:nonzero;"/>
        </g>
        <g transform="matrix(4.166667,0,0,4.166667,111.503838,1295.205541)">
            <path d="M378.148,68.309L391.728,68.309L422.297,104.472L422.297,76.67C422.297,73.703 421.951,71.851 421.262,71.116C420.35,70.119 418.909,69.62 416.938,69.62L415.201,69.62L415.201,68.309L432.646,68.309L432.646,69.62L430.873,69.62C428.753,69.62 427.25,70.237 426.363,71.472C425.82,72.231 425.551,73.964 425.551,76.67L425.551,117.361L424.219,117.361L391.248,78.474L391.248,108.216C391.248,111.183 391.58,113.035 392.247,113.77C393.182,114.767 394.624,115.266 396.57,115.266L398.344,115.266L398.344,116.577L380.898,116.577L380.898,115.266L382.636,115.266C384.778,115.266 386.295,114.649 387.183,113.414C387.723,112.655 387.994,110.922 387.994,108.216L387.994,74.637C386.544,73 385.443,71.921 384.693,71.4C383.943,70.878 382.844,70.391 381.393,69.941C380.68,69.726 379.598,69.62 378.148,69.62L378.148,68.309Z" style="fill:none;stroke:rgb(35,31,32);stroke-width:0.5px;"/>
        </g>
        <g transform="matrix(4.166667,0,0,4.166667,111.503838,1295.205541)">
            <path d="M468.183,68.309L485.645,68.309L485.645,69.62L484.684,69.62C484.046,69.62 483.11,69.894 481.882,70.441C480.653,70.989 479.534,71.774 478.526,72.796C477.518,73.819 476.277,75.484 474.804,77.79L462.728,96.107L462.728,108.216C462.728,111.183 463.072,113.035 463.762,113.77C464.699,114.767 466.177,115.266 468.196,115.266L469.823,115.266L469.823,116.577L448.537,116.577L448.537,115.266L450.311,115.266C452.429,115.266 453.932,114.649 454.818,113.414C455.361,112.655 455.632,110.922 455.632,108.216L455.632,96.766L441.941,76.548C440.319,74.181 439.218,72.701 438.642,72.107C438.063,71.515 436.865,70.805 435.046,69.974C434.555,69.739 433.84,69.62 432.908,69.62L432.908,68.309L454.268,68.309L454.268,69.62L453.161,69.62C452.006,69.62 450.942,69.881 449.972,70.404C449,70.927 448.514,71.71 448.514,72.756C448.514,73.61 449.264,75.155 450.764,77.387L461.214,92.942L471.022,78.063C472.497,75.83 473.235,74.169 473.235,73.076C473.235,72.411 473.057,71.816 472.7,71.294C472.343,70.771 471.835,70.362 471.171,70.065C470.507,69.768 469.51,69.62 468.183,69.62L468.183,68.309Z" style="fill:rgb(35,31,32);fill-rule:nonzero;"/>
        </g>
        <g transform="matrix(4.166667,0,0,4.166667,111.503838,1295.205541)">
            <path d="M468.183,68.309L485.645,68.309L485.645,69.62L484.684,69.62C484.046,69.62 483.11,69.894 481.882,70.441C480.653,70.989 479.534,71.774 478.526,72.796C477.518,73.819 476.277,75.484 474.804,77.79L462.728,96.107L462.728,108.216C462.728,111.183 463.072,113.035 463.762,113.77C464.699,114.767 466.177,115.266 468.196,115.266L469.823,115.266L469.823,116.577L448.537,116.577L448.537,115.266L450.311,115.266C452.429,115.266 453.932,114.649 454.818,113.414C455.361,112.655 455.632,110.922 455.632,108.216L455.632,96.766L441.941,76.548C440.319,74.181 439.218,72.701 438.642,72.107C438.063,71.515 436.865,70.805 435.046,69.974C434.555,69.739 433.84,69.62 432.908,69.62L432.908,68.309L454.268,68.309L454.268,69.62L453.161,69.62C452.006,69.62 450.942,69.881 449.972,70.404C449,70.927 448.514,71.71 448.514,72.756C448.514,73.61 449.264,75.155 450.764,77.387L461.214,92.942L471.022,78.063C472.497,75.83 473.235,74.169 473.235,73.076C473.235,72.411 473.057,71.816 472.7,71.294C472.343,70.771 471.835,70.362 471.171,70.065C470.507,69.768 469.51,69.62 468.183,69.62L468.183,68.309Z" style="fill:none;stroke:rgb(35,31,32);stroke-width:0.5px;"/>
        </g>
        <g transform="matrix(4.166667,0,0,4.166667,111.503838,1295.205541)">
            <path d="M3.215,61.958C2.909,61.498 2.372,59.952 3.374,59.571C3.593,59.547 2.129,59.987 1.151,60.876C0.174,61.764 0.292,62.831 0.648,63.452C0.96,63.997 1.254,64.283 2.07,64.786C3.081,65.407 5.386,66.915 7.972,68.771L7.972,135.761L41.471,135.761C41.787,137.19 42.347,139.845 42.411,140.963L44.359,140.963C40.115,110.412 31.74,78.814 3.215,61.958Z" style="fill:rgb(35,31,32);"/>
        </g>
        <g transform="matrix(4.166667,0,0,4.166667,111.503838,1295.205541)">
            <path d="M35.612,31.24C32.851,26.692 29.241,22.911 25.478,18.978C19.18,12.575 11.031,7.784 2.957,3.765C2.405,3.141 2.968,1.267 3.794,0.889L3.58,0.808C3.58,0.808 1.98,1.076 1.003,1.964C0.026,2.852 -0.062,4.363 0.026,4.985C0.115,5.606 0.559,5.962 1.448,6.318C2.253,6.64 5.179,7.917 7.972,9.477L7.972,31.147C17.964,31.274 26.491,31.288 35.612,31.24Z" style="fill:rgb(35,31,32);"/>
        </g>
        <g transform="matrix(4.166667,0,0,4.166667,111.503838,1295.205541)">
            <path d="M18.529,64.071C18.221,64.225 16.682,63.837 17.064,64.992C35.28,84.829 41.397,110.045 44.968,135.761L50.711,135.761C51.027,137.19 51.588,139.845 51.651,140.963L53.495,140.963C50.228,113.867 45.873,87.324 32.769,64.256L18.529,64.071Z" style="fill:rgb(35,31,32);"/>
        </g>
        <g transform="matrix(4.166667,0,0,4.166667,111.503838,1295.205541)">
            <path d="M29.625,59.246C28.782,56.857 26.786,54.929 25.405,52.769C19.186,44.982 11.195,38.576 2.891,33.937C2.355,32.782 2.896,31.473 3.974,31.09L4.039,31.09L3.847,31.019C3.847,31.019 2.247,31.285 1.27,32.175C0.292,33.065 0.262,34.307 0.351,34.929C0.441,35.552 1.417,36.084 2.129,36.528C2.849,36.98 5.251,38.49 7.972,40.098L7.972,59.297C14.871,59.119 21.679,59.922 29.625,59.246Z" style="fill:rgb(35,31,32);fill-rule:nonzero;"/>
        </g>
        <g transform="matrix(4.166667,0,0,4.166667,111.503838,1295.205541)">
            <path d="M39.604,36.79L38.526,36.172L16.741,36.355L16.741,36.895C26.422,44.844 33.404,55.867 38.46,66.656C47.738,88.036 51.953,111.621 54.285,135.761L60.44,135.761C60.644,136.944 60.98,139.037 61.159,140.963L62.285,140.963C62.285,140.963 63.01,140.955 63.01,140.952L63.01,140.904C60.574,104.079 57.337,67.561 39.604,36.79Z" style="fill:rgb(35,31,32);"/>
        </g>
        <g transform="matrix(4.166667,0,0,4.166667,111.503838,1295.205541)">
            <path d="M69.811,6.524L42.286,6.468L22.118,6.42L21.041,6.42C20.656,6.572 19.963,6.338 20.115,6.955C30.183,14.289 39.09,24.78 44.455,35.646C58.96,65.928 62.693,100.628 64.128,135.761L69.811,135.761L69.811,6.524Z" style="fill:rgb(35,31,32);fill-rule:nonzero;"/>
        </g>
    </g>
</svg>
